<?xml version="1.0" encoding="UTF-8" standalone="no"?>
<!DOCTYPE svg PUBLIC "-//W3C//DTD SVG 1.1//EN"
 "http://www.w3.org/Graphics/SVG/1.1/DTD/svg11.dtd">
<!-- Generated by graphviz version 2.40.1 (20161225.0304)
 -->
<!-- Title: G Pages: 1 -->
<svg width="4411pt" height="857pt"
 viewBox="0.00 0.00 4411.34 857.26" xmlns="http://www.w3.org/2000/svg" xmlns:xlink="http://www.w3.org/1999/xlink">
<g id="graph0" class="graph" transform="scale(1 1) rotate(0) translate(4 853.2562)">
<title>G</title>
<polygon fill="#ffffff" stroke="transparent" points="-4,4 -4,-853.2562 4407.3437,-853.2562 4407.3437,4 -4,4"/>
<!-- n1_1 -->
<g id="node1" class="node">
<title>n1_1</title>
<g id="a_node1"><a xlink:href="linalg/graph_n1_1.html" xlink:title="Die Menge der n&#45;Tupel\nreeller Zahlen">
<ellipse fill="none" stroke="#000000" cx="1495.0519" cy="-811.7795" rx="127.9727" ry="26.7407"/>
<text text-anchor="middle" x="1495.0519" y="-815.5795" font-family="Times,serif" font-size="14.00" fill="#000000">Die Menge der n&#45;Tupel</text>
<text text-anchor="middle" x="1495.0519" y="-800.5795" font-family="Times,serif" font-size="14.00" fill="#000000">reeller Zahlen</text>
</a>
</g>
</g>
<!-- n1_3 -->
<g id="node3" class="node">
<title>n1_3</title>
<g id="a_node3"><a xlink:href="linalg/graph_n1_3.html" xlink:title="Motivation abstrakte Vektorräume 1">
<polygon fill="none" stroke="#000000" points="1850.3257,-720.3029 1745.1888,-738.3029 1534.915,-738.3029 1429.7781,-720.3029 1534.915,-702.3029 1745.1888,-702.3029 1850.3257,-720.3029"/>
<text text-anchor="middle" x="1640.0519" y="-716.6029" font-family="Times,serif" font-size="14.00" fill="#000000">Motivation abstrakte Vektorräume 1</text>
</a>
</g>
</g>
<!-- n1_1&#45;&gt;n1_3 -->
<g id="edge1" class="edge">
<title>n1_1&#45;&gt;n1_3</title>
<path fill="none" stroke="#000000" d="M1535.8283,-786.0547C1556.937,-772.7379 1582.5148,-756.6015 1603.0489,-743.6471"/>
<polygon fill="none" stroke="#000000" points="1604.9226,-746.6033 1611.5127,-738.3075 1601.1876,-740.683 1604.9226,-746.6033"/>
</g>
<!-- n1_2 -->
<g id="node2" class="node">
<title>n1_2</title>
<g id="a_node2"><a xlink:href="linalg/graph_n1_2.html" xlink:title="Die Menge der\nkomplexwertigen stetigen\nFunktionen auf [0,1]">
<ellipse fill="none" stroke="#000000" cx="1785.0519" cy="-811.7795" rx="144.5" ry="37.4533"/>
<text text-anchor="middle" x="1785.0519" y="-823.0795" font-family="Times,serif" font-size="14.00" fill="#000000">Die Menge der</text>
<text text-anchor="middle" x="1785.0519" y="-808.0795" font-family="Times,serif" font-size="14.00" fill="#000000">komplexwertigen stetigen</text>
<text text-anchor="middle" x="1785.0519" y="-793.0795" font-family="Times,serif" font-size="14.00" fill="#000000">Funktionen auf [0,1]</text>
</a>
</g>
</g>
<!-- n1_2&#45;&gt;n1_3 -->
<g id="edge2" class="edge">
<title>n1_2&#45;&gt;n1_3</title>
<path fill="none" stroke="#000000" d="M1729.8199,-776.9352C1712.2627,-765.8588 1693.2709,-753.8773 1677.297,-743.7999"/>
<polygon fill="none" stroke="#000000" points="1679.0866,-740.7905 1668.7615,-738.415 1675.3516,-746.7109 1679.0866,-740.7905"/>
</g>
<!-- n1_5 -->
<g id="node5" class="node">
<title>n1_5</title>
<g id="a_node5"><a xlink:href="linalg/graph_n1_5.html" xlink:title="Definition Vektorraum">
<polygon fill="none" stroke="#000000" points="1723.0519,-666.3029 1551.0519,-666.3029 1551.0519,-630.3029 1729.0519,-630.3029 1729.0519,-660.3029 1723.0519,-666.3029"/>
<polyline fill="none" stroke="#000000" points="1723.0519,-666.3029 1723.0519,-660.3029 "/>
<polyline fill="none" stroke="#000000" points="1729.0519,-660.3029 1723.0519,-660.3029 "/>
<text text-anchor="middle" x="1640.0519" y="-644.6029" font-family="Times,serif" font-size="14.00" fill="#000000">Definition Vektorraum</text>
</a>
</g>
</g>
<!-- n1_3&#45;&gt;n1_5 -->
<g id="edge3" class="edge">
<title>n1_3&#45;&gt;n1_5</title>
<path fill="none" stroke="#000000" d="M1640.0519,-702.1342C1640.0519,-694.4338 1640.0519,-685.2772 1640.0519,-676.7195"/>
<polygon fill="none" stroke="#000000" points="1643.552,-676.7161 1640.0519,-666.7161 1636.552,-676.7162 1643.552,-676.7161"/>
</g>
<!-- n1_4 -->
<g id="node4" class="node">
<title>n1_4</title>
<g id="a_node4"><a xlink:href="linalg/graph_n1_4.html" xlink:title="Notation Körper">
<polygon fill="none" stroke="#000000" points="3369.8824,-716.2975 3350.7039,-731.5257 3273.0519,-738.3029 3195.3998,-731.5257 3176.2213,-716.2975 3229.9582,-704.0854 3316.1455,-704.0854 3369.8824,-716.2975"/>
<text text-anchor="middle" x="3273.0519" y="-716.6029" font-family="Times,serif" font-size="14.00" fill="#000000">Notation Körper</text>
</a>
</g>
</g>
<!-- n1_4&#45;&gt;n1_5 -->
<g id="edge4" class="edge">
<title>n1_4&#45;&gt;n1_5</title>
<path fill="none" stroke="#000000" d="M3180.4067,-719.8388C2945.9201,-718.0365 2310.0127,-709.2384 1782.0519,-666.3029 1768.2997,-665.1845 1753.8331,-663.7045 1739.6089,-662.0724"/>
<polygon fill="#000000" stroke="#000000" points="1739.6486,-658.553 1729.308,-660.8601 1738.8304,-665.505 1739.6486,-658.553"/>
</g>
<!-- n1_9 -->
<g id="node9" class="node">
<title>n1_9</title>
<g id="a_node9"><a xlink:href="linalg/graph_n1_9.html" xlink:title="Weitere Rechenregeln für Vektoren">
<polygon fill="none" stroke="#000000" points="3144.8188,-563.276 3042.4353,-581.276 2837.6684,-581.276 2735.2849,-563.276 2837.6684,-545.276 3042.4353,-545.276 3144.8188,-563.276"/>
<text text-anchor="middle" x="2940.0519" y="-559.576" font-family="Times,serif" font-size="14.00" fill="#000000">Weitere Rechenregeln für Vektoren</text>
</a>
</g>
</g>
<!-- n1_4&#45;&gt;n1_9 -->
<g id="edge8" class="edge">
<title>n1_4&#45;&gt;n1_9</title>
<path fill="none" stroke="#000000" d="M3238.3574,-703.9426C3178.3774,-675.6589 3055.2289,-617.588 2987.4223,-585.6136"/>
<polygon fill="#000000" stroke="#000000" points="2988.7717,-582.3804 2978.2341,-581.2809 2985.7861,-588.7118 2988.7717,-582.3804"/>
</g>
<!-- n1_10 -->
<g id="node10" class="node">
<title>n1_10</title>
<g id="a_node10"><a xlink:href="linalg/graph_n1_10.html" xlink:title="Notwendigkeit der Vektorraum&#45;Axiome">
<polygon fill="none" stroke="#000000" points="1865.3452,-563.276 1752.6985,-581.276 1527.4052,-581.276 1414.7585,-563.276 1527.4052,-545.276 1752.6985,-545.276 1865.3452,-563.276"/>
<text text-anchor="middle" x="1640.0519" y="-559.576" font-family="Times,serif" font-size="14.00" fill="#000000">Notwendigkeit der Vektorraum&#45;Axiome</text>
</a>
</g>
</g>
<!-- n1_4&#45;&gt;n1_10 -->
<g id="edge11" class="edge">
<title>n1_4&#45;&gt;n1_10</title>
<path fill="none" stroke="#000000" d="M3178.1324,-715.8083C3025.5353,-708.1842 2716.2864,-691.0916 2455.0519,-666.3029 2196.018,-641.723 2132.1353,-627.4037 1874.0519,-594.3029 1841.267,-590.098 1805.9128,-585.4629 1772.8626,-581.086"/>
<polygon fill="#000000" stroke="#000000" points="1773.0583,-577.5814 1762.685,-579.7367 1772.1383,-584.5206 1773.0583,-577.5814"/>
</g>
<!-- n1_11 -->
<g id="node11" class="node">
<title>n1_11</title>
<g id="a_node11"><a xlink:href="linalg/graph_n1_11.html" xlink:title="Vereinfachende Notationen für Vektoren">
<polygon fill="none" stroke="#000000" points="2330.8085,-559.2706 2286.4908,-574.4988 2107.0519,-581.276 1927.613,-574.4988 1883.2952,-559.2706 2007.4708,-547.0586 2206.6329,-547.0586 2330.8085,-559.2706"/>
<text text-anchor="middle" x="2107.0519" y="-559.576" font-family="Times,serif" font-size="14.00" fill="#000000">Vereinfachende Notationen für Vektoren</text>
</a>
</g>
</g>
<!-- n1_4&#45;&gt;n1_11 -->
<g id="edge12" class="edge">
<title>n1_4&#45;&gt;n1_11</title>
<path fill="none" stroke="#000000" d="M3183.6715,-714.5453C3067.6925,-706.5228 2859.2042,-690.2217 2682.0519,-666.3029 2506.2004,-642.5597 2302.1253,-603.1446 2190.5534,-580.5716"/>
<polygon fill="#000000" stroke="#000000" points="2191.2036,-577.1323 2180.7074,-578.5747 2189.8122,-583.9926 2191.2036,-577.1323"/>
</g>
<!-- n1_12 -->
<g id="node12" class="node">
<title>n1_12</title>
<g id="a_node12"><a xlink:href="linalg/graph_n1_12.html" xlink:title="Untervektorraum">
<polygon fill="none" stroke="#000000" points="2485.5519,-581.276 2348.5519,-581.276 2348.5519,-545.276 2491.5519,-545.276 2491.5519,-575.276 2485.5519,-581.276"/>
<polyline fill="none" stroke="#000000" points="2485.5519,-581.276 2485.5519,-575.276 "/>
<polyline fill="none" stroke="#000000" points="2491.5519,-575.276 2485.5519,-575.276 "/>
<text text-anchor="middle" x="2420.0519" y="-559.576" font-family="Times,serif" font-size="14.00" fill="#000000">Untervektorraum</text>
</a>
</g>
</g>
<!-- n1_4&#45;&gt;n1_12 -->
<g id="edge14" class="edge">
<title>n1_4&#45;&gt;n1_12</title>
<path fill="none" stroke="#000000" d="M3192.9252,-712.4569C3108.4996,-703.6057 2971.8451,-687.618 2855.0519,-666.3029 2728.2372,-643.1588 2582.8606,-606.6762 2496.3942,-583.9067"/>
<polygon fill="#000000" stroke="#000000" points="2497.2263,-580.5065 2486.664,-581.3368 2495.4387,-587.2745 2497.2263,-580.5065"/>
</g>
<!-- n1_16 -->
<g id="node16" class="node">
<title>n1_16</title>
<g id="a_node16"><a xlink:href="linalg/graph_n1_16.html" xlink:title="Linearkombination\nund lineare Hülle">
<polygon fill="none" stroke="#000000" points="2711.0519,-582.276 2565.0519,-582.276 2565.0519,-544.276 2717.0519,-544.276 2717.0519,-576.276 2711.0519,-582.276"/>
<polyline fill="none" stroke="#000000" points="2711.0519,-582.276 2711.0519,-576.276 "/>
<polyline fill="none" stroke="#000000" points="2717.0519,-576.276 2711.0519,-576.276 "/>
<text text-anchor="middle" x="2641.0519" y="-567.076" font-family="Times,serif" font-size="14.00" fill="#000000">Linearkombination</text>
<text text-anchor="middle" x="2641.0519" y="-552.076" font-family="Times,serif" font-size="14.00" fill="#000000">und lineare Hülle</text>
</a>
</g>
</g>
<!-- n1_4&#45;&gt;n1_16 -->
<g id="edge20" class="edge">
<title>n1_4&#45;&gt;n1_16</title>
<path fill="none" stroke="#000000" d="M3210.467,-708.5082C3108.1552,-688.6434 2899.1366,-645.6137 2726.0519,-594.3029 2717.4245,-591.7453 2708.4023,-588.7788 2699.594,-585.7146"/>
<polygon fill="#000000" stroke="#000000" points="2700.7434,-582.4087 2690.1487,-582.3658 2698.4042,-589.0063 2700.7434,-582.4087"/>
</g>
<!-- n1_21 -->
<g id="node21" class="node">
<title>n1_21</title>
<g id="a_node21"><a xlink:href="linalg/graph_n1_21.html" xlink:title="Beispiel für lineare Hülle\neiner unendlichen Menge">
<ellipse fill="none" stroke="#000000" cx="3902.0519" cy="-360.7187" rx="140.9288" ry="26.7407"/>
<text text-anchor="middle" x="3902.0519" y="-364.5187" font-family="Times,serif" font-size="14.00" fill="#000000">Beispiel für lineare Hülle</text>
<text text-anchor="middle" x="3902.0519" y="-349.5187" font-family="Times,serif" font-size="14.00" fill="#000000">einer unendlichen Menge</text>
</a>
</g>
</g>
<!-- n1_4&#45;&gt;n1_21 -->
<g id="edge29" class="edge">
<title>n1_4&#45;&gt;n1_21</title>
<path fill="none" stroke="#000000" d="M3340.6919,-709.5443C3455.5082,-688.0917 3690.1561,-630.0256 3835.0519,-496.2491 3863.9871,-469.5343 3882.0197,-427.5792 3891.9901,-397.4247"/>
<polygon fill="#000000" stroke="#000000" points="3895.3905,-398.2797 3895.0664,-387.6899 3888.7158,-396.1704 3895.3905,-398.2797"/>
</g>
<!-- n1_22 -->
<g id="node22" class="node">
<title>n1_22</title>
<g id="a_node22"><a xlink:href="linalg/graph_n1_22.html" xlink:title="Lineare Unabhängigkeit">
<polygon fill="none" stroke="#000000" points="3424.5519,-483.2223 3239.5519,-483.2223 3239.5519,-447.2223 3430.5519,-447.2223 3430.5519,-477.2223 3424.5519,-483.2223"/>
<polyline fill="none" stroke="#000000" points="3424.5519,-483.2223 3424.5519,-477.2223 "/>
<polyline fill="none" stroke="#000000" points="3430.5519,-477.2223 3424.5519,-477.2223 "/>
<text text-anchor="middle" x="3335.0519" y="-461.5223" font-family="Times,serif" font-size="14.00" fill="#000000">Lineare Unabhängigkeit</text>
</a>
</g>
</g>
<!-- n1_4&#45;&gt;n1_22 -->
<g id="edge31" class="edge">
<title>n1_4&#45;&gt;n1_22</title>
<path fill="none" stroke="#000000" d="M3277.0246,-703.9584C3287.3728,-661.3837 3315.2543,-546.6734 3328.233,-493.2766"/>
<polygon fill="#000000" stroke="#000000" points="3331.6595,-493.998 3330.6204,-483.4543 3324.8575,-492.3447 3331.6595,-493.998"/>
</g>
<!-- n1_24 -->
<g id="node24" class="node">
<title>n1_24</title>
<g id="a_node24"><a xlink:href="linalg/graph_n1_24.html" xlink:title="Lineare Unabhängigkeit\nAlternativcharakterisierung">
<polygon fill="none" stroke="#000000" points="3705.0519,-379.7187 3499.0519,-379.7187 3499.0519,-383.7187 3487.0519,-383.7187 3487.0519,-341.7187 3705.0519,-341.7187 3705.0519,-379.7187"/>
<polyline fill="none" stroke="#000000" points="3487.0519,-379.7187 3499.0519,-379.7187 "/>
<text text-anchor="middle" x="3596.0519" y="-364.5187" font-family="Times,serif" font-size="14.00" fill="#000000">Lineare Unabhängigkeit</text>
<text text-anchor="middle" x="3596.0519" y="-349.5187" font-family="Times,serif" font-size="14.00" fill="#000000">Alternativcharakterisierung</text>
</a>
</g>
</g>
<!-- n1_4&#45;&gt;n1_24 -->
<g id="edge34" class="edge">
<title>n1_4&#45;&gt;n1_24</title>
<path fill="none" stroke="#000000" d="M3291.1302,-704.0227C3330.4773,-668.2137 3426.0422,-579.1856 3497.0519,-496.2491 3527.4904,-460.6982 3558.7048,-416.4066 3577.7395,-388.3367"/>
<polygon fill="#000000" stroke="#000000" points="3580.7896,-390.0735 3583.4752,-379.8247 3574.9845,-386.1618 3580.7896,-390.0735"/>
</g>
<!-- n1_26 -->
<g id="node26" class="node">
<title>n1_26</title>
<g id="a_node26"><a xlink:href="linalg/graph_n1_26.html" xlink:title="Beispiel für linear\nabhängige Vektoren\nund Mengen">
<ellipse fill="none" stroke="#000000" cx="3608.0519" cy="-249.7654" rx="113.6886" ry="37.4533"/>
<text text-anchor="middle" x="3608.0519" y="-261.0654" font-family="Times,serif" font-size="14.00" fill="#000000">Beispiel für linear</text>
<text text-anchor="middle" x="3608.0519" y="-246.0654" font-family="Times,serif" font-size="14.00" fill="#000000">abhängige Vektoren</text>
<text text-anchor="middle" x="3608.0519" y="-231.0654" font-family="Times,serif" font-size="14.00" fill="#000000">und Mengen</text>
</a>
</g>
</g>
<!-- n1_4&#45;&gt;n1_26 -->
<g id="edge42" class="edge">
<title>n1_4&#45;&gt;n1_26</title>
<path fill="none" stroke="#000000" d="M3368.6661,-717.3953C3482.806,-712.518 3678.9857,-699.6702 3844.0519,-666.3029 3967.9123,-641.2651 4109.0519,-689.6418 4109.0519,-563.276 4109.0519,-563.276 4109.0519,-563.276 4109.0519,-465.2223 4109.0519,-400.7267 4125.8602,-367.6117 4079.0519,-323.2421 4030.343,-277.0709 3854.2974,-259.9108 3731.8164,-253.5342"/>
<polygon fill="#000000" stroke="#000000" points="3731.7808,-250.0281 3721.6177,-253.0216 3731.4294,-257.0193 3731.7808,-250.0281"/>
</g>
<!-- n1_27 -->
<g id="node27" class="node">
<title>n1_27</title>
<g id="a_node27"><a xlink:href="linalg/graph_n1_27.html" xlink:title="Basis eines Vektorraums">
<polygon fill="none" stroke="#000000" points="2848.5519,-378.7187 2659.5519,-378.7187 2659.5519,-342.7187 2854.5519,-342.7187 2854.5519,-372.7187 2848.5519,-378.7187"/>
<polyline fill="none" stroke="#000000" points="2848.5519,-378.7187 2848.5519,-372.7187 "/>
<polyline fill="none" stroke="#000000" points="2854.5519,-372.7187 2848.5519,-372.7187 "/>
<text text-anchor="middle" x="2757.0519" y="-357.0187" font-family="Times,serif" font-size="14.00" fill="#000000">Basis eines Vektorraums</text>
</a>
</g>
</g>
<!-- n1_4&#45;&gt;n1_27 -->
<g id="edge43" class="edge">
<title>n1_4&#45;&gt;n1_27</title>
<path fill="none" stroke="#000000" d="M3270.497,-703.7754C3261.5681,-648.2693 3229.9546,-470.0096 3187.0519,-434.1954 3132.2867,-388.4787 2937.6869,-413.6936 2868.0519,-398.1954 2849.7088,-394.1129 2830.1481,-388.0959 2812.6379,-382.0723"/>
<polygon fill="#000000" stroke="#000000" points="2813.7365,-378.7487 2803.1417,-378.7375 2811.4171,-385.3533 2813.7365,-378.7487"/>
</g>
<!-- n1_28 -->
<g id="node28" class="node">
<title>n1_28</title>
<g id="a_node28"><a xlink:href="linalg/graph_n1_28.html" xlink:title="Basis Charakterisierung\ndurch Eindeutigkeit\nder Basisentwicklung">
<polygon fill="none" stroke="#000000" points="4344.5519,-276.2654 4165.5519,-276.2654 4165.5519,-280.2654 4153.5519,-280.2654 4153.5519,-223.2654 4344.5519,-223.2654 4344.5519,-276.2654"/>
<polyline fill="none" stroke="#000000" points="4153.5519,-276.2654 4165.5519,-276.2654 "/>
<text text-anchor="middle" x="4249.0519" y="-261.0654" font-family="Times,serif" font-size="14.00" fill="#000000">Basis Charakterisierung</text>
<text text-anchor="middle" x="4249.0519" y="-246.0654" font-family="Times,serif" font-size="14.00" fill="#000000">durch Eindeutigkeit</text>
<text text-anchor="middle" x="4249.0519" y="-231.0654" font-family="Times,serif" font-size="14.00" fill="#000000">der Basisentwicklung</text>
</a>
</g>
</g>
<!-- n1_4&#45;&gt;n1_28 -->
<g id="edge46" class="edge">
<title>n1_4&#45;&gt;n1_28</title>
<path fill="none" stroke="#000000" d="M3366.3176,-719.3436C3580.3685,-716.4736 4093.6967,-705.5386 4161.0519,-666.3029 4208.2487,-638.8097 4228.0519,-617.8966 4228.0519,-563.276 4228.0519,-563.276 4228.0519,-563.276 4228.0519,-465.2223 4228.0519,-402.2051 4237.0608,-329.3072 4243.2774,-286.5062"/>
<polygon fill="#000000" stroke="#000000" points="4246.7482,-286.9603 4244.7515,-276.5553 4239.8238,-285.9344 4246.7482,-286.9603"/>
</g>
<!-- n1_29 -->
<g id="node29" class="node">
<title>n1_29</title>
<g id="a_node29"><a xlink:href="linalg/graph_n1_29.html" xlink:title="Kanonische Basis">
<ellipse fill="none" stroke="#000000" cx="4311.0519" cy="-149.4187" rx="92.0841" ry="18"/>
<text text-anchor="middle" x="4311.0519" y="-145.7187" font-family="Times,serif" font-size="14.00" fill="#000000">Kanonische Basis</text>
</a>
</g>
</g>
<!-- n1_4&#45;&gt;n1_29 -->
<g id="edge49" class="edge">
<title>n1_4&#45;&gt;n1_29</title>
<path fill="none" stroke="#000000" d="M3368.7865,-717.2632C3589.3397,-709.895 4120.3297,-689.937 4198.0519,-666.3029 4284.4034,-640.0447 4373.0519,-653.5316 4373.0519,-563.276 4373.0519,-563.276 4373.0519,-563.276 4373.0519,-360.7187 4373.0519,-294.2116 4377.7041,-274.448 4354.0519,-212.2888 4349.0794,-199.2208 4340.8791,-186.2227 4332.9655,-175.4659"/>
<polygon fill="#000000" stroke="#000000" points="4335.6116,-173.1649 4326.7476,-167.3612 4330.0577,-177.4258 4335.6116,-173.1649"/>
</g>
<!-- n1_30 -->
<g id="node30" class="node">
<title>n1_30</title>
<g id="a_node30"><a xlink:href="linalg/graph_n1_30.html" xlink:title="(Unendliche) Teilmenge\nals Basis">
<polygon fill="none" stroke="#000000" points="3476.5546,-249.7654 3399.8032,-280.8192 3246.3005,-280.8192 3169.5492,-249.7654 3246.3005,-218.7116 3399.8032,-218.7116 3476.5546,-249.7654"/>
<text text-anchor="middle" x="3323.0519" y="-253.5654" font-family="Times,serif" font-size="14.00" fill="#000000">(Unendliche) Teilmenge</text>
<text text-anchor="middle" x="3323.0519" y="-238.5654" font-family="Times,serif" font-size="14.00" fill="#000000">als Basis</text>
</a>
</g>
</g>
<!-- n1_4&#45;&gt;n1_30 -->
<g id="edge51" class="edge">
<title>n1_4&#45;&gt;n1_30</title>
<path fill="none" stroke="#000000" d="M3354.7017,-712.7783C3558.085,-692.9416 4071.0519,-635.7284 4071.0519,-563.276 4071.0519,-563.276 4071.0519,-563.276 4071.0519,-465.2223 4071.0519,-401.5574 4098.6093,-366.6658 4052.0519,-323.2421 4005.8879,-280.1853 3547.5129,-296.3867 3485.0519,-287.2421 3466.0796,-284.4644 3446.0466,-280.6052 3426.7806,-276.4127"/>
<polygon fill="#000000" stroke="#000000" points="3427.3062,-272.9443 3416.7853,-274.1939 3425.7892,-279.7779 3427.3062,-272.9443"/>
</g>
<!-- n1_31 -->
<g id="node31" class="node">
<title>n1_31</title>
<g id="a_node31"><a xlink:href="linalg/graph_n1_31.html" xlink:title="Monome als Basis des\nVektorraums der Polynome">
<ellipse fill="none" stroke="#000000" cx="3874.0519" cy="-149.4187" rx="150.7276" ry="26.7407"/>
<text text-anchor="middle" x="3874.0519" y="-153.2187" font-family="Times,serif" font-size="14.00" fill="#000000">Monome als Basis des</text>
<text text-anchor="middle" x="3874.0519" y="-138.2187" font-family="Times,serif" font-size="14.00" fill="#000000">Vektorraums der Polynome</text>
</a>
</g>
</g>
<!-- n1_4&#45;&gt;n1_31 -->
<g id="edge55" class="edge">
<title>n1_4&#45;&gt;n1_31</title>
<path fill="none" stroke="#000000" d="M3368.5528,-717.5272C3533.5815,-711.9734 3865.191,-697.2735 3977.0519,-666.3029 4062.1966,-642.7291 4147.0519,-651.6238 4147.0519,-563.276 4147.0519,-563.276 4147.0519,-563.276 4147.0519,-465.2223 4147.0519,-399.8989 4145.8134,-377.2395 4109.0519,-323.2421 4065.1825,-258.8043 3989.3463,-209.1113 3935.7025,-179.6694"/>
<polygon fill="#000000" stroke="#000000" points="3937.0872,-176.4394 3926.6257,-174.7641 3933.7591,-182.5977 3937.0872,-176.4394"/>
</g>
<!-- n1_35 -->
<g id="node35" class="node">
<title>n1_35</title>
<g id="a_node35"><a xlink:href="linalg/graph_n1_35.html" xlink:title="Maximale Mächtigkeit\nvon Mengen linear\nunabhängiger Vektoren">
<polygon fill="none" stroke="#000000" points="2604.0519,-387.2187 2418.0519,-387.2187 2418.0519,-383.2187 2414.0519,-383.2187 2414.0519,-379.2187 2418.0519,-379.2187 2418.0519,-342.2187 2414.0519,-342.2187 2414.0519,-338.2187 2418.0519,-338.2187 2418.0519,-334.2187 2604.0519,-334.2187 2604.0519,-387.2187"/>
<polyline fill="none" stroke="#000000" points="2418.0519,-383.2187 2422.0519,-383.2187 2422.0519,-379.2187 2418.0519,-379.2187 "/>
<polyline fill="none" stroke="#000000" points="2418.0519,-342.2187 2422.0519,-342.2187 2422.0519,-338.2187 2418.0519,-338.2187 "/>
<text text-anchor="middle" x="2511.0519" y="-372.0187" font-family="Times,serif" font-size="14.00" fill="#000000">Maximale Mächtigkeit</text>
<text text-anchor="middle" x="2511.0519" y="-357.0187" font-family="Times,serif" font-size="14.00" fill="#000000">von Mengen linear</text>
<text text-anchor="middle" x="2511.0519" y="-342.0187" font-family="Times,serif" font-size="14.00" fill="#000000">unabhängiger Vektoren</text>
</a>
</g>
</g>
<!-- n1_4&#45;&gt;n1_35 -->
<g id="edge63" class="edge">
<title>n1_4&#45;&gt;n1_35</title>
<path fill="none" stroke="#000000" d="M3267.3278,-703.9081C3253.709,-667.3383 3215.8239,-578.6726 3154.0519,-532.2491 2954.6448,-382.3888 2849.5416,-464.4224 2609.0519,-398.1954 2601.0997,-396.0055 2592.8946,-393.4178 2584.7748,-390.6415"/>
<polygon fill="#000000" stroke="#000000" points="2585.8972,-387.3261 2575.3024,-387.3083 2583.5737,-393.9292 2585.8972,-387.3261"/>
</g>
<!-- n1_6 -->
<g id="node6" class="node">
<title>n1_6</title>
<g id="a_node6"><a xlink:href="linalg/graph_n1_6.html" xlink:title="Motivation abstrakte Vektorräume 2">
<polygon fill="none" stroke="#000000" points="740.3257,-563.276 635.1888,-581.276 424.915,-581.276 319.7781,-563.276 424.915,-545.276 635.1888,-545.276 740.3257,-563.276"/>
<text text-anchor="middle" x="530.0519" y="-559.576" font-family="Times,serif" font-size="14.00" fill="#000000">Motivation abstrakte Vektorräume 2</text>
</a>
</g>
</g>
<!-- n1_5&#45;&gt;n1_6 -->
<g id="edge5" class="edge">
<title>n1_5&#45;&gt;n1_6</title>
<path fill="none" stroke="#000000" d="M1551.0204,-645.2727C1390.4486,-639.2811 1041.8149,-623.865 749.0519,-594.3029 716.6781,-591.0339 681.7424,-586.5297 649.4875,-581.9662"/>
<polygon fill="#000000" stroke="#000000" points="649.9637,-578.4988 639.5692,-580.5493 648.9737,-585.4284 649.9637,-578.4988"/>
</g>
<!-- n1_7 -->
<g id="node7" class="node">
<title>n1_7</title>
<g id="a_node7"><a xlink:href="linalg/graph_n1_7.html" xlink:title="Eindeutigkeit der Null">
<polygon fill="none" stroke="#000000" points="1025.7259,-563.276 958.8889,-581.276 825.2148,-581.276 758.3778,-563.276 825.2148,-545.276 958.8889,-545.276 1025.7259,-563.276"/>
<text text-anchor="middle" x="892.0519" y="-559.576" font-family="Times,serif" font-size="14.00" fill="#000000">Eindeutigkeit der Null</text>
</a>
</g>
</g>
<!-- n1_5&#45;&gt;n1_7 -->
<g id="edge6" class="edge">
<title>n1_5&#45;&gt;n1_7</title>
<path fill="none" stroke="#000000" d="M1550.8059,-643.8828C1432.2416,-637.2052 1216.5039,-622.2504 1034.0519,-594.3029 1013.795,-591.2 992.1002,-586.9434 971.9183,-582.5773"/>
<polygon fill="#000000" stroke="#000000" points="972.6634,-579.1576 962.1452,-580.4297 971.161,-585.9944 972.6634,-579.1576"/>
</g>
<!-- n1_8 -->
<g id="node8" class="node">
<title>n1_8</title>
<g id="a_node8"><a xlink:href="linalg/graph_n1_8.html" xlink:title="Eindeutigkeit der Inversen">
<polygon fill="none" stroke="#000000" points="1358.7572,-563.276 1279.9045,-581.276 1122.1992,-581.276 1043.3465,-563.276 1122.1992,-545.276 1279.9045,-545.276 1358.7572,-563.276"/>
<text text-anchor="middle" x="1201.0519" y="-559.576" font-family="Times,serif" font-size="14.00" fill="#000000">Eindeutigkeit der Inversen</text>
</a>
</g>
</g>
<!-- n1_5&#45;&gt;n1_8 -->
<g id="edge7" class="edge">
<title>n1_5&#45;&gt;n1_8</title>
<path fill="none" stroke="#000000" d="M1550.9492,-631.0452C1477.0751,-616.737 1372.2894,-596.4418 1296.6699,-581.7956"/>
<polygon fill="#000000" stroke="#000000" points="1297.1494,-578.3235 1286.6663,-579.8581 1295.8183,-585.1958 1297.1494,-578.3235"/>
</g>
<!-- n1_5&#45;&gt;n1_9 -->
<g id="edge9" class="edge">
<title>n1_5&#45;&gt;n1_9</title>
<path fill="none" stroke="#000000" d="M1729.2998,-646.7121C1915.1468,-642.7731 2357.0824,-630.1432 2726.0519,-594.3029 2757.8296,-591.2161 2792.1114,-586.756 2823.7264,-582.1757"/>
<polygon fill="#000000" stroke="#000000" points="2824.504,-585.5992 2833.8907,-580.686 2823.4888,-578.6732 2824.504,-585.5992"/>
</g>
<!-- n1_5&#45;&gt;n1_10 -->
<g id="edge10" class="edge">
<title>n1_5&#45;&gt;n1_10</title>
<path fill="none" stroke="#000000" d="M1640.0519,-630.2709C1640.0519,-618.9979 1640.0519,-604.2413 1640.0519,-591.4476"/>
<polygon fill="#000000" stroke="#000000" points="1643.552,-591.282 1640.0519,-581.282 1636.552,-591.2821 1643.552,-591.282"/>
</g>
<!-- n1_5&#45;&gt;n1_11 -->
<g id="edge13" class="edge">
<title>n1_5&#45;&gt;n1_11</title>
<path fill="none" stroke="#000000" d="M1729.2658,-632.0597C1811.1833,-617.1449 1932.0662,-595.1357 2014.8995,-580.0542"/>
<polygon fill="#000000" stroke="#000000" points="2015.596,-583.485 2024.8073,-578.2503 2014.3421,-576.5982 2015.596,-583.485"/>
</g>
<!-- n1_5&#45;&gt;n1_12 -->
<g id="edge15" class="edge">
<title>n1_5&#45;&gt;n1_12</title>
<path fill="none" stroke="#000000" d="M1729.2956,-644.6723C1891.0023,-637.5538 2226.2457,-620.1687 2340.0519,-594.3029 2350.1795,-592.0011 2360.7243,-588.6518 2370.7079,-584.9963"/>
<polygon fill="#000000" stroke="#000000" points="2371.9806,-588.2569 2380.0759,-581.4219 2369.4852,-581.7168 2371.9806,-588.2569"/>
</g>
<!-- n1_13 -->
<g id="node13" class="node">
<title>n1_13</title>
<g id="a_node13"><a xlink:href="linalg/graph_n1_13.html" xlink:title="Untervektorraum ist selbst Vektorraum">
<polygon fill="none" stroke="#000000" points="1614.3481,-465.2223 1500.7,-483.2223 1273.4038,-483.2223 1159.7556,-465.2223 1273.4038,-447.2223 1500.7,-447.2223 1614.3481,-465.2223"/>
<text text-anchor="middle" x="1387.0519" y="-461.5223" font-family="Times,serif" font-size="14.00" fill="#000000">Untervektorraum ist selbst Vektorraum</text>
</a>
</g>
</g>
<!-- n1_5&#45;&gt;n1_13 -->
<g id="edge16" class="edge">
<title>n1_5&#45;&gt;n1_13</title>
<path fill="none" stroke="#000000" d="M1551.0272,-638.2121C1493.4817,-629.7926 1425.7693,-615.6783 1406.0519,-594.3029 1381.1303,-567.2856 1380.1686,-522.6563 1382.8053,-493.5974"/>
<polygon fill="#000000" stroke="#000000" points="1386.3246,-493.617 1383.9496,-483.2918 1379.3673,-492.8445 1386.3246,-493.617"/>
</g>
<!-- n1_15 -->
<g id="node15" class="node">
<title>n1_15</title>
<g id="a_node15"><a xlink:href="linalg/graph_n1_15.html" xlink:title="R^n und Intuition für\nabstrakte Vektorräume">
<polygon fill="none" stroke="#000000" points="302.1556,-563.276 226.6037,-594.3298 75.5,-594.3298 -.0519,-563.276 75.5,-532.2222 226.6037,-532.2222 302.1556,-563.276"/>
<text text-anchor="middle" x="151.0519" y="-567.076" font-family="Times,serif" font-size="14.00" fill="#000000">R^n und Intuition für</text>
<text text-anchor="middle" x="151.0519" y="-552.076" font-family="Times,serif" font-size="14.00" fill="#000000">abstrakte Vektorräume</text>
</a>
</g>
</g>
<!-- n1_5&#45;&gt;n1_15 -->
<g id="edge19" class="edge">
<title>n1_5&#45;&gt;n1_15</title>
<path fill="none" stroke="#000000" d="M1550.9899,-646.4391C1293.6651,-640.7755 552.1725,-622.4174 311.0519,-594.3029 294.4887,-592.3716 277.0721,-589.6852 260.0728,-586.6938"/>
<polygon fill="#000000" stroke="#000000" points="260.5839,-583.2296 250.1217,-584.9006 259.3424,-590.1186 260.5839,-583.2296"/>
</g>
<!-- n1_5&#45;&gt;n1_16 -->
<g id="edge21" class="edge">
<title>n1_5&#45;&gt;n1_16</title>
<path fill="none" stroke="#000000" d="M1729.1347,-647.2693C1885.9314,-644.4378 2221.1359,-633.8535 2501.0519,-594.3029 2518.7309,-591.8049 2537.4921,-588.2714 2555.3418,-584.4787"/>
<polygon fill="#000000" stroke="#000000" points="2556.1215,-587.891 2565.1518,-582.3499 2554.6369,-581.0503 2556.1215,-587.891"/>
</g>
<!-- n1_12&#45;&gt;n1_13 -->
<g id="edge17" class="edge">
<title>n1_12&#45;&gt;n1_13</title>
<path fill="none" stroke="#000000" d="M2380.9414,-545.2377C2368.1704,-540.1311 2353.7466,-535.1716 2340.0519,-532.2491 2030.1804,-466.1222 1943.6386,-524.4993 1628.0519,-496.2491 1591.6615,-492.9916 1552.3103,-488.387 1516.1665,-483.7197"/>
<polygon fill="#000000" stroke="#000000" points="1516.4308,-480.2246 1506.0623,-482.4027 1515.526,-487.1659 1516.4308,-480.2246"/>
</g>
<!-- n1_14 -->
<g id="node14" class="node">
<title>n1_14</title>
<g id="a_node14"><a xlink:href="linalg/graph_n1_14.html" xlink:title="Beispiele für Untervektorräume">
<ellipse fill="none" stroke="#000000" cx="1830.0519" cy="-465.2223" rx="159.7717" ry="18"/>
<text text-anchor="middle" x="1830.0519" y="-461.5223" font-family="Times,serif" font-size="14.00" fill="#000000">Beispiele für Untervektorräume</text>
</a>
</g>
</g>
<!-- n1_12&#45;&gt;n1_14 -->
<g id="edge18" class="edge">
<title>n1_12&#45;&gt;n1_14</title>
<path fill="none" stroke="#000000" d="M2379.608,-545.2123C2367.1412,-540.2955 2353.2248,-535.4498 2340.0519,-532.2491 2194.11,-496.7889 2152.7368,-517.4445 2004.0519,-496.2491 1976.9807,-492.3901 1947.6718,-487.458 1920.9636,-482.6675"/>
<polygon fill="#000000" stroke="#000000" points="1921.3282,-479.1767 1910.8649,-480.841 1920.0822,-486.065 1921.3282,-479.1767"/>
</g>
<!-- n1_17 -->
<g id="node17" class="node">
<title>n1_17</title>
<g id="a_node17"><a xlink:href="linalg/graph_n1_17.html" xlink:title="Lineare Hülle\nist Untervektorraum">
<polygon fill="none" stroke="#000000" points="2533.9961,-465.2223 2466.524,-496.276 2331.5797,-496.276 2264.1076,-465.2223 2331.5797,-434.1685 2466.524,-434.1685 2533.9961,-465.2223"/>
<text text-anchor="middle" x="2399.0519" y="-469.0223" font-family="Times,serif" font-size="14.00" fill="#000000">Lineare Hülle</text>
<text text-anchor="middle" x="2399.0519" y="-454.0223" font-family="Times,serif" font-size="14.00" fill="#000000">ist Untervektorraum</text>
</a>
</g>
</g>
<!-- n1_12&#45;&gt;n1_17 -->
<g id="edge23" class="edge">
<title>n1_12&#45;&gt;n1_17</title>
<path fill="none" stroke="#000000" d="M2416.1019,-544.8328C2413.7728,-533.9578 2410.7278,-519.74 2407.8566,-506.3333"/>
<polygon fill="#000000" stroke="#000000" points="2411.2261,-505.3534 2405.7095,-496.3081 2404.3813,-506.8194 2411.2261,-505.3534"/>
</g>
<!-- n1_18 -->
<g id="node18" class="node">
<title>n1_18</title>
<g id="a_node18"><a xlink:href="linalg/graph_n1_18.html" xlink:title="Erzeugendensystem">
<polygon fill="none" stroke="#000000" points="2240.0519,-483.2223 2084.0519,-483.2223 2084.0519,-447.2223 2246.0519,-447.2223 2246.0519,-477.2223 2240.0519,-483.2223"/>
<polyline fill="none" stroke="#000000" points="2240.0519,-483.2223 2240.0519,-477.2223 "/>
<polyline fill="none" stroke="#000000" points="2246.0519,-477.2223 2240.0519,-477.2223 "/>
<text text-anchor="middle" x="2165.0519" y="-461.5223" font-family="Times,serif" font-size="14.00" fill="#000000">Erzeugendensystem</text>
</a>
</g>
</g>
<!-- n1_12&#45;&gt;n1_18 -->
<g id="edge24" class="edge">
<title>n1_12&#45;&gt;n1_18</title>
<path fill="none" stroke="#000000" d="M2373.5317,-545.1958C2362.556,-540.9406 2350.894,-536.4279 2340.0519,-532.2491 2300.5101,-517.0089 2255.9021,-499.9252 2221.6199,-486.8194"/>
<polygon fill="#000000" stroke="#000000" points="2222.8277,-483.5342 2212.2372,-483.2332 2220.3285,-490.0729 2222.8277,-483.5342"/>
</g>
<!-- n1_39 -->
<g id="node39" class="node">
<title>n1_39</title>
<g id="a_node39"><a xlink:href="linalg/graph_n1_39.html" xlink:title="Dimension eines Unterraums">
<polygon fill="none" stroke="#000000" points="2239.7729,-43.2743 2154.9124,-61.2743 1985.1914,-61.2743 1900.3309,-43.2743 1985.1914,-25.2743 2154.9124,-25.2743 2239.7729,-43.2743"/>
<text text-anchor="middle" x="2070.0519" y="-39.5743" font-family="Times,serif" font-size="14.00" fill="#000000">Dimension eines Unterraums</text>
</a>
</g>
</g>
<!-- n1_12&#45;&gt;n1_39 -->
<g id="edge76" class="edge">
<title>n1_12&#45;&gt;n1_39</title>
<path fill="none" stroke="#000000" d="M2379.1667,-545.1709C2366.8048,-540.3133 2353.0564,-535.5103 2340.0519,-532.2491 2275.9935,-516.1851 2093.4732,-541.1591 2045.0519,-496.2491 2000.0197,-454.4825 2018.0519,-422.1381 2018.0519,-360.7187 2018.0519,-360.7187 2018.0519,-360.7187 2018.0519,-249.7654 2018.0519,-183.9599 2043.1931,-109.8321 2058.5126,-70.7716"/>
<polygon fill="#000000" stroke="#000000" points="2061.7984,-71.9813 2062.2669,-61.3969 2055.3001,-69.3789 2061.7984,-71.9813"/>
</g>
<!-- n1_40 -->
<g id="node40" class="node">
<title>n1_40</title>
<g id="a_node40"><a xlink:href="linalg/graph_n1_40.html" xlink:title="Schnitt von Unterräumen">
<polygon fill="none" stroke="#000000" points="1810.2474,-43.2743 1735.1497,-61.2743 1584.9541,-61.2743 1509.8563,-43.2743 1584.9541,-25.2743 1735.1497,-25.2743 1810.2474,-43.2743"/>
<text text-anchor="middle" x="1660.0519" y="-39.5743" font-family="Times,serif" font-size="14.00" fill="#000000">Schnitt von Unterräumen</text>
</a>
</g>
</g>
<!-- n1_12&#45;&gt;n1_40 -->
<g id="edge78" class="edge">
<title>n1_12&#45;&gt;n1_40</title>
<path fill="none" stroke="#000000" d="M2380.9371,-545.2579C2368.1658,-540.1524 2353.743,-535.1884 2340.0519,-532.2491 2266.1845,-516.3911 1716.7291,-547.3168 1661.0519,-496.2491 1616.2267,-455.1351 1642.0519,-421.5435 1642.0519,-360.7187 1642.0519,-360.7187 1642.0519,-360.7187 1642.0519,-249.7654 1642.0519,-185.8174 1650.7255,-111.149 1656.0309,-71.4583"/>
<polygon fill="#000000" stroke="#000000" points="1659.5111,-71.8401 1657.3959,-61.4585 1652.5755,-70.8932 1659.5111,-71.8401"/>
</g>
<!-- n1_41 -->
<g id="node41" class="node">
<title>n1_41</title>
<g id="a_node41"><a xlink:href="linalg/graph_n1_41.html" xlink:title="Summe von Unterräumen">
<polygon fill="none" stroke="#000000" points="2748.0519,-483.2223 2552.0519,-483.2223 2552.0519,-447.2223 2754.0519,-447.2223 2754.0519,-477.2223 2748.0519,-483.2223"/>
<polyline fill="none" stroke="#000000" points="2748.0519,-483.2223 2748.0519,-477.2223 "/>
<polyline fill="none" stroke="#000000" points="2754.0519,-477.2223 2748.0519,-477.2223 "/>
<text text-anchor="middle" x="2653.0519" y="-461.5223" font-family="Times,serif" font-size="14.00" fill="#000000">Summe von Unterräumen</text>
</a>
</g>
</g>
<!-- n1_12&#45;&gt;n1_41 -->
<g id="edge79" class="edge">
<title>n1_12&#45;&gt;n1_41</title>
<path fill="none" stroke="#000000" d="M2463.0592,-545.1772C2501.852,-528.8519 2559.0202,-504.7938 2600.5077,-487.3345"/>
<polygon fill="#000000" stroke="#000000" points="2602.0416,-490.4863 2609.9011,-483.3815 2599.3264,-484.0344 2602.0416,-490.4863"/>
</g>
<!-- n1_42 -->
<g id="node42" class="node">
<title>n1_42</title>
<g id="a_node42"><a xlink:href="linalg/graph_n1_42.html" xlink:title="Dimensionsformel\nfür Unterräume">
<polygon fill="none" stroke="#000000" points="2434.0519,-62.2743 2294.0519,-62.2743 2294.0519,-24.2743 2440.0519,-24.2743 2440.0519,-56.2743 2434.0519,-62.2743"/>
<polyline fill="none" stroke="#000000" points="2434.0519,-62.2743 2434.0519,-56.2743 "/>
<polyline fill="none" stroke="#000000" points="2440.0519,-56.2743 2434.0519,-56.2743 "/>
<text text-anchor="middle" x="2367.0519" y="-47.0743" font-family="Times,serif" font-size="14.00" fill="#000000">Dimensionsformel</text>
<text text-anchor="middle" x="2367.0519" y="-32.0743" font-family="Times,serif" font-size="14.00" fill="#000000">für Unterräume</text>
</a>
</g>
</g>
<!-- n1_12&#45;&gt;n1_42 -->
<g id="edge81" class="edge">
<title>n1_12&#45;&gt;n1_42</title>
<path fill="none" stroke="#000000" d="M2378.7258,-545.1204C2366.4704,-540.3206 2352.8897,-535.5614 2340.0519,-532.2491 2282.5065,-517.4021 2117.1645,-538.1827 2075.0519,-496.2491 2031.9508,-453.3312 2056.0519,-421.5435 2056.0519,-360.7187 2056.0519,-360.7187 2056.0519,-360.7187 2056.0519,-249.7654 2056.0519,-192.5302 2036.5888,-164.0039 2076.0519,-122.5486 2130.2016,-65.6653 2173.5384,-108.1267 2249.0519,-86.5486 2269.3333,-80.7532 2291.1233,-73.1642 2310.3907,-65.9624"/>
<polygon fill="#000000" stroke="#000000" points="2311.8069,-69.1688 2319.9208,-62.3559 2309.3293,-62.6219 2311.8069,-69.1688"/>
</g>
<!-- n1_16&#45;&gt;n1_17 -->
<g id="edge22" class="edge">
<title>n1_16&#45;&gt;n1_17</title>
<path fill="none" stroke="#000000" d="M2594.1049,-544.254C2561.9199,-531.2132 2518.377,-513.5705 2480.5967,-498.2626"/>
<polygon fill="#000000" stroke="#000000" points="2481.7086,-494.9368 2471.1261,-494.4253 2479.0799,-501.4245 2481.7086,-494.9368"/>
</g>
<!-- n1_16&#45;&gt;n1_18 -->
<g id="edge25" class="edge">
<title>n1_16&#45;&gt;n1_18</title>
<path fill="none" stroke="#000000" d="M2564.964,-545.3578C2544.2905,-540.7782 2521.8645,-536.073 2501.0519,-532.2491 2392.3731,-512.2817 2362.4181,-522.3695 2255.0519,-496.2491 2244.1217,-493.59 2232.6417,-490.1517 2221.6769,-486.5364"/>
<polygon fill="#000000" stroke="#000000" points="2222.7949,-483.2198 2212.2006,-483.329 2220.5506,-489.8503 2222.7949,-483.2198"/>
</g>
<!-- n1_19 -->
<g id="node19" class="node">
<title>n1_19</title>
<g id="a_node19"><a xlink:href="linalg/graph_n1_19.html" xlink:title="Beispiele für lineare\nHüllen und ihre\nErzeugendensysteme">
<ellipse fill="none" stroke="#000000" cx="2280.0519" cy="-360.7187" rx="120.4167" ry="37.4533"/>
<text text-anchor="middle" x="2280.0519" y="-372.0187" font-family="Times,serif" font-size="14.00" fill="#000000">Beispiele für lineare</text>
<text text-anchor="middle" x="2280.0519" y="-357.0187" font-family="Times,serif" font-size="14.00" fill="#000000">Hüllen und ihre</text>
<text text-anchor="middle" x="2280.0519" y="-342.0187" font-family="Times,serif" font-size="14.00" fill="#000000">Erzeugendensysteme</text>
</a>
</g>
</g>
<!-- n1_16&#45;&gt;n1_19 -->
<g id="edge26" class="edge">
<title>n1_16&#45;&gt;n1_19</title>
<path fill="none" stroke="#000000" d="M2703.5486,-544.207C2726.4127,-533.8654 2749.8859,-518.5047 2763.0519,-496.2491 2777.0942,-472.5123 2781.5407,-454.6598 2763.0519,-434.1954 2710.0431,-375.5225 2486.6707,-413.2873 2409.0519,-398.1954 2397.6053,-395.9698 2385.7091,-393.1839 2373.9756,-390.1416"/>
<polygon fill="#000000" stroke="#000000" points="2374.7349,-386.7219 2364.1711,-387.5323 2372.9346,-393.4864 2374.7349,-386.7219"/>
</g>
<!-- n1_20 -->
<g id="node20" class="node">
<title>n1_20</title>
<g id="a_node20"><a xlink:href="linalg/graph_n1_20.html" xlink:title="Lineare Hülle erzeugt\nvon einer (unendlichen)\nTeilmenge">
<polygon fill="none" stroke="#000000" points="3820.0519,-491.7223 3640.0519,-491.7223 3640.0519,-438.7223 3826.0519,-438.7223 3826.0519,-485.7223 3820.0519,-491.7223"/>
<polyline fill="none" stroke="#000000" points="3820.0519,-491.7223 3820.0519,-485.7223 "/>
<polyline fill="none" stroke="#000000" points="3826.0519,-485.7223 3820.0519,-485.7223 "/>
<text text-anchor="middle" x="3733.0519" y="-476.5223" font-family="Times,serif" font-size="14.00" fill="#000000">Lineare Hülle erzeugt</text>
<text text-anchor="middle" x="3733.0519" y="-461.5223" font-family="Times,serif" font-size="14.00" fill="#000000">von einer (unendlichen)</text>
<text text-anchor="middle" x="3733.0519" y="-446.5223" font-family="Times,serif" font-size="14.00" fill="#000000">Teilmenge</text>
</a>
</g>
</g>
<!-- n1_16&#45;&gt;n1_20 -->
<g id="edge28" class="edge">
<title>n1_16&#45;&gt;n1_20</title>
<path fill="none" stroke="#000000" d="M2685.3145,-544.2459C2698.2192,-539.4898 2712.4986,-534.9725 2726.0519,-532.2491 3062.8048,-464.583 3155.9254,-526.7563 3498.0519,-496.2491 3541.4104,-492.3829 3589.0597,-486.4144 3630.0511,-480.7411"/>
<polygon fill="#000000" stroke="#000000" points="3630.6288,-484.1944 3640.0487,-479.3451 3629.6607,-477.2617 3630.6288,-484.1944"/>
</g>
<!-- n1_16&#45;&gt;n1_22 -->
<g id="edge32" class="edge">
<title>n1_16&#45;&gt;n1_22</title>
<path fill="none" stroke="#000000" d="M2687.2022,-544.1492C2699.6345,-539.6288 2713.2029,-535.255 2726.0519,-532.2491 2899.5752,-491.6552 3106.8129,-475.4867 3229.3145,-469.1598"/>
<polygon fill="#000000" stroke="#000000" points="3229.6313,-472.6483 3239.4424,-468.6492 3229.2788,-465.6572 3229.6313,-472.6483"/>
</g>
<!-- n1_16&#45;&gt;n1_24 -->
<g id="edge35" class="edge">
<title>n1_16&#45;&gt;n1_24</title>
<path fill="none" stroke="#000000" d="M2685.7616,-544.117C2698.5504,-539.4208 2712.6577,-534.9669 2726.0519,-532.2491 2881.7474,-500.6579 3292.6844,-555.5951 3440.0519,-496.2491 3497.1161,-473.2689 3547.7237,-420.2698 3574.9231,-387.7747"/>
<polygon fill="#000000" stroke="#000000" points="3577.6788,-389.9339 3581.3235,-379.9857 3572.2705,-385.4897 3577.6788,-389.9339"/>
</g>
<!-- n1_16&#45;&gt;n1_27 -->
<g id="edge44" class="edge">
<title>n1_16&#45;&gt;n1_27</title>
<path fill="none" stroke="#000000" d="M2692.6607,-544.1734C2703.6609,-540.1759 2715.2248,-536.0288 2726.0519,-532.2491 2773.8211,-515.5729 2804.4676,-537.2951 2834.0519,-496.2491 2850.1778,-473.8755 2844.9036,-459.5502 2834.0519,-434.1954 2825.6317,-414.5219 2809.0713,-397.6111 2793.459,-384.9896"/>
<polygon fill="#000000" stroke="#000000" points="2795.4832,-382.1306 2785.4293,-378.7884 2791.2046,-387.6708 2795.4832,-382.1306"/>
</g>
<!-- n1_16&#45;&gt;n1_35 -->
<g id="edge60" class="edge">
<title>n1_16&#45;&gt;n1_35</title>
<path fill="none" stroke="#000000" d="M2692.7278,-544.1669C2735.3772,-527.8769 2789.8737,-505.6518 2796.0519,-496.2491 2811.1966,-473.2 2813.5139,-455.5426 2796.0519,-434.1954 2744.9482,-371.7215 2695.8787,-419.586 2618.0519,-398.1954 2609.6403,-395.8835 2600.9342,-393.2488 2592.2876,-390.4724"/>
<polygon fill="#000000" stroke="#000000" points="2593.1623,-387.0759 2582.5695,-387.2872 2590.982,-393.7277 2593.1623,-387.0759"/>
</g>
<!-- n1_16&#45;&gt;n1_41 -->
<g id="edge80" class="edge">
<title>n1_16&#45;&gt;n1_41</title>
<path fill="none" stroke="#000000" d="M2643.4227,-543.9037C2645.1933,-529.4362 2647.6392,-509.4499 2649.6228,-493.2415"/>
<polygon fill="#000000" stroke="#000000" points="2653.1071,-493.5829 2650.8478,-483.2318 2646.1589,-492.7326 2653.1071,-493.5829"/>
</g>
<!-- n1_18&#45;&gt;n1_19 -->
<g id="edge27" class="edge">
<title>n1_18&#45;&gt;n1_19</title>
<path fill="none" stroke="#000000" d="M2185.0833,-447.0191C2198.365,-434.9497 2216.3707,-418.5875 2233.1337,-403.3545"/>
<polygon fill="#000000" stroke="#000000" points="2235.6798,-405.7701 2240.7267,-396.4545 2230.9721,-400.5895 2235.6798,-405.7701"/>
</g>
<!-- n1_18&#45;&gt;n1_35 -->
<g id="edge61" class="edge">
<title>n1_18&#45;&gt;n1_35</title>
<path fill="none" stroke="#000000" d="M2214.7469,-447.0734C2227.7771,-442.5951 2241.8714,-437.9971 2255.0519,-434.1954 2322.5883,-414.7155 2341.7148,-418.3538 2409.0519,-398.1954 2416.7613,-395.8875 2424.7334,-393.3081 2432.6668,-390.612"/>
<polygon fill="#000000" stroke="#000000" points="2433.9994,-393.8545 2442.3042,-387.2756 2431.7094,-387.2397 2433.9994,-393.8545"/>
</g>
<!-- n1_36 -->
<g id="node36" class="node">
<title>n1_36</title>
<g id="a_node36"><a xlink:href="linalg/graph_n1_36.html" xlink:title="Basisergänzungssatz">
<polygon fill="none" stroke="#000000" points="2403.5519,-267.7654 2248.5519,-267.7654 2248.5519,-271.7654 2236.5519,-271.7654 2236.5519,-231.7654 2403.5519,-231.7654 2403.5519,-267.7654"/>
<polyline fill="none" stroke="#000000" points="2236.5519,-267.7654 2248.5519,-267.7654 "/>
<text text-anchor="middle" x="2320.0519" y="-246.0654" font-family="Times,serif" font-size="14.00" fill="#000000">Basisergänzungssatz</text>
</a>
</g>
</g>
<!-- n1_18&#45;&gt;n1_36 -->
<g id="edge65" class="edge">
<title>n1_18&#45;&gt;n1_36</title>
<path fill="none" stroke="#000000" d="M2156.4225,-446.8915C2144.228,-418.0279 2126.0629,-361.3552 2151.0519,-323.2421 2168.3847,-296.806 2197.5134,-279.831 2226.7504,-268.9519"/>
<polygon fill="#000000" stroke="#000000" points="2227.9519,-272.2397 2236.232,-265.6297 2225.6371,-265.6335 2227.9519,-272.2397"/>
</g>
<!-- n1_37 -->
<g id="node37" class="node">
<title>n1_37</title>
<g id="a_node37"><a xlink:href="linalg/graph_n1_37.html" xlink:title="Basisauswahlsatz">
<polygon fill="none" stroke="#000000" points="2227.5519,-167.4187 2096.5519,-167.4187 2096.5519,-171.4187 2084.5519,-171.4187 2084.5519,-131.4187 2227.5519,-131.4187 2227.5519,-167.4187"/>
<polyline fill="none" stroke="#000000" points="2084.5519,-167.4187 2096.5519,-167.4187 "/>
<text text-anchor="middle" x="2156.0519" y="-145.7187" font-family="Times,serif" font-size="14.00" fill="#000000">Basisauswahlsatz</text>
</a>
</g>
</g>
<!-- n1_18&#45;&gt;n1_37 -->
<g id="edge68" class="edge">
<title>n1_18&#45;&gt;n1_37</title>
<path fill="none" stroke="#000000" d="M2154.1013,-447.2057C2146.819,-434.1277 2137.9094,-415.7253 2134.0519,-398.1954 2116.7188,-319.4276 2136.1893,-223.7832 2148.1311,-177.3732"/>
<polygon fill="#000000" stroke="#000000" points="2151.581,-178.0186 2150.7638,-167.4554 2144.8153,-176.2227 2151.581,-178.0186"/>
</g>
<!-- n1_20&#45;&gt;n1_21 -->
<g id="edge30" class="edge">
<title>n1_20&#45;&gt;n1_21</title>
<path fill="none" stroke="#000000" d="M3776.135,-438.5812C3799.2159,-424.3088 3827.7739,-406.6495 3851.8551,-391.7586"/>
<polygon fill="#000000" stroke="#000000" points="3853.8416,-394.6454 3860.5061,-386.4092 3850.16,-388.6917 3853.8416,-394.6454"/>
</g>
<!-- n1_20&#45;&gt;n1_30 -->
<g id="edge53" class="edge">
<title>n1_20&#45;&gt;n1_30</title>
<path fill="none" stroke="#000000" d="M3737.9897,-438.7174C3742.2681,-406.7871 3743.7761,-353.6549 3714.0519,-323.2421 3678.0455,-286.4016 3535.6227,-297.0536 3485.0519,-287.2421 3466.9152,-283.7233 3447.7223,-279.6217 3429.1346,-275.4486"/>
<polygon fill="#000000" stroke="#000000" points="3429.707,-271.9897 3419.181,-273.1947 3428.161,-278.8169 3429.707,-271.9897"/>
</g>
<!-- n1_23 -->
<g id="node23" class="node">
<title>n1_23</title>
<g id="a_node23"><a xlink:href="linalg/graph_n1_23.html" xlink:title="Lineare Unabhängigkeit\neines einzigen Vektors">
<polygon fill="none" stroke="#000000" points="3221.9536,-360.7187 3144.0027,-391.7725 2988.101,-391.7725 2910.1502,-360.7187 2988.101,-329.665 3144.0027,-329.665 3221.9536,-360.7187"/>
<text text-anchor="middle" x="3066.0519" y="-364.5187" font-family="Times,serif" font-size="14.00" fill="#000000">Lineare Unabhängigkeit</text>
<text text-anchor="middle" x="3066.0519" y="-349.5187" font-family="Times,serif" font-size="14.00" fill="#000000">eines einzigen Vektors</text>
</a>
</g>
</g>
<!-- n1_22&#45;&gt;n1_23 -->
<g id="edge33" class="edge">
<title>n1_22&#45;&gt;n1_23</title>
<path fill="none" stroke="#000000" d="M3288.5027,-447.1384C3251.7211,-432.8492 3199.3128,-412.4891 3154.6034,-395.12"/>
<polygon fill="#000000" stroke="#000000" points="3155.7769,-391.8211 3145.1882,-391.4623 3153.242,-398.3461 3155.7769,-391.8211"/>
</g>
<!-- n1_22&#45;&gt;n1_24 -->
<g id="edge36" class="edge">
<title>n1_22&#45;&gt;n1_24</title>
<path fill="none" stroke="#000000" d="M3380.2166,-447.1384C3424.1689,-429.5401 3491.1187,-402.7336 3538.7884,-383.6468"/>
<polygon fill="#000000" stroke="#000000" points="3540.3699,-386.7838 3548.3524,-379.8174 3537.7679,-380.2853 3540.3699,-386.7838"/>
</g>
<!-- n1_25 -->
<g id="node25" class="node">
<title>n1_25</title>
<g id="a_node25"><a xlink:href="linalg/graph_n1_25.html" xlink:title="Lineare Unabhängigkeit\neiner (unendlichen)\nTeilmenge">
<polygon fill="none" stroke="#000000" points="3424.5519,-387.2187 3239.5519,-387.2187 3239.5519,-334.2187 3430.5519,-334.2187 3430.5519,-381.2187 3424.5519,-387.2187"/>
<polyline fill="none" stroke="#000000" points="3424.5519,-387.2187 3424.5519,-381.2187 "/>
<polyline fill="none" stroke="#000000" points="3430.5519,-381.2187 3424.5519,-381.2187 "/>
<text text-anchor="middle" x="3335.0519" y="-372.0187" font-family="Times,serif" font-size="14.00" fill="#000000">Lineare Unabhängigkeit</text>
<text text-anchor="middle" x="3335.0519" y="-357.0187" font-family="Times,serif" font-size="14.00" fill="#000000">einer (unendlichen)</text>
<text text-anchor="middle" x="3335.0519" y="-342.0187" font-family="Times,serif" font-size="14.00" fill="#000000">Teilmenge</text>
</a>
</g>
</g>
<!-- n1_22&#45;&gt;n1_25 -->
<g id="edge37" class="edge">
<title>n1_22&#45;&gt;n1_25</title>
<path fill="none" stroke="#000000" d="M3329.785,-447.0191C3328.3719,-433.3626 3327.9686,-414.2099 3328.575,-397.416"/>
<polygon fill="#000000" stroke="#000000" points="3332.0753,-397.4979 3329.0831,-387.3344 3325.0841,-397.1455 3332.0753,-397.4979"/>
</g>
<!-- n1_22&#45;&gt;n1_25 -->
<g id="edge38" class="edge">
<title>n1_22&#45;&gt;n1_25</title>
<path fill="none" stroke="#000000" d="M3340.3187,-447.0191C3341.7318,-433.3626 3342.1352,-414.2099 3341.5287,-397.416"/>
<polygon fill="#000000" stroke="#000000" points="3345.0196,-397.1455 3341.0206,-387.3344 3338.0285,-397.4979 3345.0196,-397.1455"/>
</g>
<!-- n1_22&#45;&gt;n1_26 -->
<g id="edge41" class="edge">
<title>n1_22&#45;&gt;n1_26</title>
<path fill="none" stroke="#000000" d="M3373.615,-447.0974C3395.2194,-435.4702 3421.4694,-418.7135 3440.0519,-398.1954 3465.1237,-370.5121 3452.2459,-350.2423 3478.0519,-323.2421 3492.5988,-308.0219 3510.9989,-295.064 3529.3434,-284.4647"/>
<polygon fill="#000000" stroke="#000000" points="3531.3006,-287.3807 3538.3274,-279.4514 3527.8894,-281.2681 3531.3006,-287.3807"/>
</g>
<!-- n1_22&#45;&gt;n1_27 -->
<g id="edge45" class="edge">
<title>n1_22&#45;&gt;n1_27</title>
<path fill="none" stroke="#000000" d="M3278.41,-447.2071C3261.4004,-442.352 3242.5963,-437.5279 3225.0519,-434.1954 3068.3818,-404.4364 3023.9175,-431.9152 2868.0519,-398.1954 2849.601,-394.2038 2829.9388,-388.1805 2812.3688,-382.1233"/>
<polygon fill="#000000" stroke="#000000" points="2813.4388,-378.7894 2802.844,-378.7674 2811.1126,-385.3917 2813.4388,-378.7894"/>
</g>
<!-- n1_22&#45;&gt;n1_35 -->
<g id="edge62" class="edge">
<title>n1_22&#45;&gt;n1_35</title>
<path fill="none" stroke="#000000" d="M3259.3625,-447.1744C3236.269,-442.2582 3210.725,-437.4088 3187.0519,-434.1954 2935.96,-400.1119 2866.3933,-448.5472 2618.0519,-398.1954 2608.0382,-396.1651 2597.686,-393.4172 2587.5443,-390.3263"/>
<polygon fill="#000000" stroke="#000000" points="2588.4934,-386.9556 2577.9033,-387.27 2586.378,-393.6283 2588.4934,-386.9556"/>
</g>
<!-- n1_22&#45;&gt;n1_36 -->
<g id="edge64" class="edge">
<title>n1_22&#45;&gt;n1_36</title>
<path fill="none" stroke="#000000" d="M3258.9738,-447.1506C3235.9803,-442.264 3210.5887,-437.4368 3187.0519,-434.1954 3127.9202,-426.052 2700.8383,-431.1222 2651.0519,-398.1954 2619.8994,-377.5923 2642.3067,-346.461 2613.0519,-323.2421 2560.3655,-281.426 2531.2954,-303.6042 2466.0519,-287.2421 2444.4804,-281.8322 2421.1412,-275.8841 2399.5853,-270.3513"/>
<polygon fill="#000000" stroke="#000000" points="2400.376,-266.9408 2389.8195,-267.8419 2398.6338,-273.7206 2400.376,-266.9408"/>
</g>
<!-- n1_38 -->
<g id="node38" class="node">
<title>n1_38</title>
<g id="a_node38"><a xlink:href="linalg/graph_n1_38.html" xlink:title="n=dim V linear\nunabhängige Vektoren\nbilden Basis von V">
<polygon fill="none" stroke="#000000" points="2768.3578,-43.2743 2695.2048,-86.3241 2548.8989,-86.3241 2475.7459,-43.2743 2548.8989,-.2245 2695.2048,-.2245 2768.3578,-43.2743"/>
<text text-anchor="middle" x="2622.0519" y="-54.5743" font-family="Times,serif" font-size="14.00" fill="#000000">n=dim V linear</text>
<text text-anchor="middle" x="2622.0519" y="-39.5743" font-family="Times,serif" font-size="14.00" fill="#000000">unabhängige Vektoren</text>
<text text-anchor="middle" x="2622.0519" y="-24.5743" font-family="Times,serif" font-size="14.00" fill="#000000">bilden Basis von V</text>
</a>
</g>
</g>
<!-- n1_22&#45;&gt;n1_38 -->
<g id="edge70" class="edge">
<title>n1_22&#45;&gt;n1_38</title>
<path fill="none" stroke="#000000" d="M3273.8053,-447.1764C3255.9513,-442.4077 3236.3285,-437.6374 3218.0519,-434.1954 3148.3794,-421.0739 2950.767,-448.7406 2901.0519,-398.1954 2842.8418,-339.0134 2926.1808,-283.217 2883.0519,-212.2888 2846.1124,-151.5395 2778.1003,-108.563 2720.7644,-81.1512"/>
<polygon fill="#000000" stroke="#000000" points="2722.2007,-77.959 2711.6604,-76.8851 2719.2304,-84.2976 2722.2007,-77.959"/>
</g>
<!-- n1_24&#45;&gt;n1_26 -->
<g id="edge39" class="edge">
<title>n1_24&#45;&gt;n1_26</title>
<path fill="none" stroke="#000000" d="M3598.1147,-341.6452C3599.434,-329.4469 3601.208,-313.0446 3602.8919,-297.4749"/>
<polygon fill="#000000" stroke="#000000" points="3606.3842,-297.7346 3603.9798,-287.4162 3599.4247,-296.9819 3606.3842,-297.7346"/>
</g>
<!-- n1_25&#45;&gt;n1_26 -->
<g id="edge40" class="edge">
<title>n1_25&#45;&gt;n1_26</title>
<path fill="none" stroke="#000000" d="M3400.4422,-334.1426C3438.3453,-318.738 3486.3974,-299.2085 3526.7246,-282.8187"/>
<polygon fill="#000000" stroke="#000000" points="3528.053,-286.0568 3535.9993,-279.0492 3525.4174,-279.5719 3528.053,-286.0568"/>
</g>
<!-- n1_25&#45;&gt;n1_30 -->
<g id="edge52" class="edge">
<title>n1_25&#45;&gt;n1_30</title>
<path fill="none" stroke="#000000" d="M3332.1776,-334.1426C3330.7827,-321.2454 3329.0751,-305.4569 3327.5159,-291.0403"/>
<polygon fill="#000000" stroke="#000000" points="3330.9684,-290.4118 3326.4134,-280.8462 3324.009,-291.1646 3330.9684,-290.4118"/>
</g>
<!-- n1_27&#45;&gt;n1_28 -->
<g id="edge47" class="edge">
<title>n1_27&#45;&gt;n1_28</title>
<path fill="none" stroke="#000000" d="M2814.9747,-342.6595C2841.0225,-335.3154 2872.3119,-327.5556 2901.0519,-323.2421 3266.1978,-268.4379 3362.4324,-308.5663 3731.0519,-287.2421 3873.7014,-278.9899 4038.2406,-266.5933 4142.9047,-258.3456"/>
<polygon fill="#000000" stroke="#000000" points="4143.4649,-261.8124 4153.1583,-257.5358 4142.9137,-254.8341 4143.4649,-261.8124"/>
</g>
<!-- n1_27&#45;&gt;n1_30 -->
<g id="edge50" class="edge">
<title>n1_27&#45;&gt;n1_30</title>
<path fill="none" stroke="#000000" d="M2821.6538,-342.697C2846.3829,-336.1172 2874.922,-328.9071 2901.0519,-323.2421 3001.5471,-301.4546 3116.5977,-281.7669 3201.1605,-268.2671"/>
<polygon fill="#000000" stroke="#000000" points="3201.7327,-271.7202 3211.0588,-266.6929 3200.6332,-264.807 3201.7327,-271.7202"/>
</g>
<!-- n1_33 -->
<g id="node33" class="node">
<title>n1_33</title>
<g id="a_node33"><a xlink:href="linalg/graph_n1_33.html" xlink:title="Eindeutigkeit der Dimension">
<polygon fill="none" stroke="#000000" points="2873.5519,-267.7654 2662.5519,-267.7654 2662.5519,-271.7654 2650.5519,-271.7654 2650.5519,-231.7654 2873.5519,-231.7654 2873.5519,-267.7654"/>
<polyline fill="none" stroke="#000000" points="2650.5519,-267.7654 2662.5519,-267.7654 "/>
<text text-anchor="middle" x="2762.0519" y="-246.0654" font-family="Times,serif" font-size="14.00" fill="#000000">Eindeutigkeit der Dimension</text>
</a>
</g>
</g>
<!-- n1_27&#45;&gt;n1_33 -->
<g id="edge57" class="edge">
<title>n1_27&#45;&gt;n1_33</title>
<path fill="none" stroke="#000000" d="M2757.8775,-342.397C2758.6628,-324.971 2759.856,-298.4931 2760.7659,-278.3023"/>
<polygon fill="#000000" stroke="#000000" points="2764.2712,-278.2618 2761.225,-268.1143 2757.2783,-277.9466 2764.2712,-278.2618"/>
</g>
<!-- n1_34 -->
<g id="node34" class="node">
<title>n1_34</title>
<g id="a_node34"><a xlink:href="linalg/graph_n1_34.html" xlink:title="Dimension eines Vektorraums">
<polygon fill="none" stroke="#000000" points="2511.5519,-167.4187 2284.5519,-167.4187 2284.5519,-131.4187 2517.5519,-131.4187 2517.5519,-161.4187 2511.5519,-167.4187"/>
<polyline fill="none" stroke="#000000" points="2511.5519,-167.4187 2511.5519,-161.4187 "/>
<polyline fill="none" stroke="#000000" points="2517.5519,-161.4187 2511.5519,-161.4187 "/>
<text text-anchor="middle" x="2401.0519" y="-145.7187" font-family="Times,serif" font-size="14.00" fill="#000000">Dimension eines Vektorraums</text>
</a>
</g>
</g>
<!-- n1_27&#45;&gt;n1_34 -->
<g id="edge58" class="edge">
<title>n1_27&#45;&gt;n1_34</title>
<path fill="none" stroke="#000000" d="M2705.8336,-342.6158C2659.0801,-325.7267 2593.7627,-301.1112 2570.0519,-287.2421 2514.6183,-254.8175 2458.448,-204.8524 2426.8546,-174.827"/>
<polygon fill="#000000" stroke="#000000" points="2429.0071,-172.0419 2419.3673,-167.6458 2424.1617,-177.0938 2429.0071,-172.0419"/>
</g>
<!-- n1_27&#45;&gt;n1_36 -->
<g id="edge66" class="edge">
<title>n1_27&#45;&gt;n1_36</title>
<path fill="none" stroke="#000000" d="M2708.3075,-342.6694C2689.086,-335.9724 2666.7021,-328.689 2646.0519,-323.2421 2564.2138,-301.6554 2541.5222,-306.2712 2459.0519,-287.2421 2437.5021,-282.2697 2414.2428,-276.2572 2393.0305,-270.5178"/>
<polygon fill="#000000" stroke="#000000" points="2393.6896,-267.0698 2383.1211,-267.8167 2391.8486,-273.8234 2393.6896,-267.0698"/>
</g>
<!-- n1_27&#45;&gt;n1_37 -->
<g id="edge67" class="edge">
<title>n1_27&#45;&gt;n1_37</title>
<path fill="none" stroke="#000000" d="M2696.5713,-342.6587C2671.0071,-335.632 2640.7848,-328.1146 2613.0519,-323.2421 2528.4194,-308.3725 2299.3909,-335.1429 2228.0519,-287.2421 2190.0314,-261.7131 2170.7837,-209.4976 2162.1243,-177.1739"/>
<polygon fill="#000000" stroke="#000000" points="2165.5088,-176.2809 2159.6745,-167.4372 2158.7204,-177.9889 2165.5088,-176.2809"/>
</g>
<!-- n1_27&#45;&gt;n1_38 -->
<g id="edge71" class="edge">
<title>n1_27&#45;&gt;n1_38</title>
<path fill="none" stroke="#000000" d="M2709.5325,-342.6196C2685.1058,-330.7257 2657.3296,-312.6129 2642.0519,-287.2421 2607.1119,-229.2194 2607.9247,-148.885 2613.5159,-96.5079"/>
<polygon fill="#000000" stroke="#000000" points="2617.0104,-96.7574 2614.6887,-86.4201 2610.0572,-95.949 2617.0104,-96.7574"/>
</g>
<!-- n1_27&#45;&gt;n1_42 -->
<g id="edge84" class="edge">
<title>n1_27&#45;&gt;n1_42</title>
<path fill="none" stroke="#000000" d="M2702.7284,-342.6415C2673.0914,-330.6276 2637.3891,-312.3917 2612.0519,-287.2421 2553.5908,-229.2138 2585.7737,-180.313 2527.0519,-122.5486 2511.0932,-106.8502 2462.2186,-83.6342 2422.646,-66.3789"/>
<polygon fill="#000000" stroke="#000000" points="2423.8975,-63.1069 2413.3296,-62.3507 2421.1194,-69.532 2423.8975,-63.1069"/>
</g>
<!-- n1_28&#45;&gt;n1_29 -->
<g id="edge48" class="edge">
<title>n1_28&#45;&gt;n1_29</title>
<path fill="none" stroke="#000000" d="M4265.504,-223.1378C4274.5354,-208.5204 4285.6974,-190.4549 4294.7112,-175.866"/>
<polygon fill="#000000" stroke="#000000" points="4297.729,-177.6405 4300.0077,-167.2936 4291.7739,-173.9611 4297.729,-177.6405"/>
</g>
<!-- n1_30&#45;&gt;n1_31 -->
<g id="edge54" class="edge">
<title>n1_30&#45;&gt;n1_31</title>
<path fill="none" stroke="#000000" d="M3419.1944,-226.4048C3440.802,-221.4672 3463.6647,-216.486 3485.0519,-212.2888 3571.9446,-195.2361 3670.4162,-179.355 3746.5435,-167.8202"/>
<polygon fill="#000000" stroke="#000000" points="3747.2937,-171.2467 3756.6592,-166.2931 3746.2487,-164.3251 3747.2937,-171.2467"/>
</g>
<!-- n1_32 -->
<g id="node32" class="node">
<title>n1_32</title>
<g id="a_node32"><a xlink:href="linalg/graph_n1_32.html" xlink:title="Existenz der Basis">
<polygon fill="none" stroke="#000000" points="3434.6978,-149.4187 3378.8748,-167.4187 3267.2289,-167.4187 3211.4059,-149.4187 3267.2289,-131.4187 3378.8748,-131.4187 3434.6978,-149.4187"/>
<text text-anchor="middle" x="3323.0519" y="-145.7187" font-family="Times,serif" font-size="14.00" fill="#000000">Existenz der Basis</text>
</a>
</g>
</g>
<!-- n1_30&#45;&gt;n1_32 -->
<g id="edge56" class="edge">
<title>n1_30&#45;&gt;n1_32</title>
<path fill="none" stroke="#000000" d="M3323.0519,-218.5651C3323.0519,-205.4404 3323.0519,-190.2843 3323.0519,-177.5125"/>
<polygon fill="#000000" stroke="#000000" points="3326.552,-177.4419 3323.0519,-167.4419 3319.552,-177.442 3326.552,-177.4419"/>
</g>
<!-- n1_30&#45;&gt;n1_34 -->
<g id="edge59" class="edge">
<title>n1_30&#45;&gt;n1_34</title>
<path fill="none" stroke="#000000" d="M3202.0428,-236.5953C3027.3546,-217.5829 2706.0105,-182.6092 2528.0428,-163.2399"/>
<polygon fill="#000000" stroke="#000000" points="2528.1625,-159.7323 2517.8425,-162.1297 2527.4051,-166.6912 2528.1625,-159.7323"/>
</g>
<!-- n1_33&#45;&gt;n1_38 -->
<g id="edge72" class="edge">
<title>n1_33&#45;&gt;n1_38</title>
<path fill="none" stroke="#000000" d="M2749.6278,-231.4407C2729.0698,-201.1189 2687.2538,-139.443 2657.0904,-94.954"/>
<polygon fill="#000000" stroke="#000000" points="2659.9212,-92.8922 2651.4124,-86.5793 2654.1273,-96.8204 2659.9212,-92.8922"/>
</g>
<!-- n1_34&#45;&gt;n1_38 -->
<g id="edge74" class="edge">
<title>n1_34&#45;&gt;n1_38</title>
<path fill="none" stroke="#000000" d="M2438.5415,-131.4127C2464.2065,-119.0861 2499.3828,-102.1912 2532.075,-86.4894"/>
<polygon fill="#000000" stroke="#000000" points="2533.7212,-89.5816 2541.2201,-82.0971 2530.6905,-83.2717 2533.7212,-89.5816"/>
</g>
<!-- n1_34&#45;&gt;n1_39 -->
<g id="edge75" class="edge">
<title>n1_34&#45;&gt;n1_39</title>
<path fill="none" stroke="#000000" d="M2344.9022,-131.4127C2287.0388,-112.8572 2196.8958,-83.9504 2135.7545,-64.3437"/>
<polygon fill="#000000" stroke="#000000" points="2136.7912,-61.0006 2126.2,-61.2798 2134.6536,-67.6663 2136.7912,-61.0006"/>
</g>
<!-- n1_34&#45;&gt;n1_40 -->
<g id="edge77" class="edge">
<title>n1_34&#45;&gt;n1_40</title>
<path fill="none" stroke="#000000" d="M2296.6414,-131.3695C2276.8802,-128.2209 2256.3548,-125.1319 2237.0519,-122.5486 2083.8101,-102.0408 2044.05,-108.8012 1891.0519,-86.5486 1844.5135,-79.7799 1793.0553,-70.3341 1750.5413,-61.9938"/>
<polygon fill="#000000" stroke="#000000" points="1750.9844,-58.5139 1740.496,-60.0112 1749.629,-65.3814 1750.9844,-58.5139"/>
</g>
<!-- n1_34&#45;&gt;n1_42 -->
<g id="edge82" class="edge">
<title>n1_34&#45;&gt;n1_42</title>
<path fill="none" stroke="#000000" d="M2395.2842,-131.4127C2390.0809,-115.1685 2382.3364,-90.991 2376.2741,-72.0651"/>
<polygon fill="#000000" stroke="#000000" points="2379.5768,-70.902 2373.193,-62.4463 2372.9104,-73.0374 2379.5768,-70.902"/>
</g>
<!-- n1_36&#45;&gt;n1_37 -->
<g id="edge69" class="edge">
<title>n1_36&#45;&gt;n1_37</title>
<path fill="none" stroke="#000000" d="M2290.3527,-231.5934C2263.4169,-215.1121 2223.5589,-190.7242 2194.2584,-172.7961"/>
<polygon fill="#000000" stroke="#000000" points="2195.8868,-169.6893 2185.5301,-167.4555 2192.2333,-175.6603 2195.8868,-169.6893"/>
</g>
<!-- n1_36&#45;&gt;n1_38 -->
<g id="edge73" class="edge">
<title>n1_36&#45;&gt;n1_38</title>
<path fill="none" stroke="#000000" d="M2403.5669,-232.5544C2443.7338,-221.324 2490.8879,-203.5442 2527.0519,-176.2888 2555.4762,-154.8663 2578.8522,-122.506 2595.3035,-95.068"/>
<polygon fill="#000000" stroke="#000000" points="2598.3732,-96.752 2600.3991,-86.3526 2592.3303,-93.2188 2598.3732,-96.752"/>
</g>
<!-- n1_36&#45;&gt;n1_42 -->
<g id="edge83" class="edge">
<title>n1_36&#45;&gt;n1_42</title>
<path fill="none" stroke="#000000" d="M2305.1726,-231.654C2286.511,-206.6005 2258.9181,-160.1981 2276.0519,-122.5486 2286.2122,-100.2225 2306.1105,-81.7376 2324.7155,-68.2497"/>
<polygon fill="#000000" stroke="#000000" points="2326.9129,-70.985 2333.1331,-62.4083 2322.922,-65.2341 2326.9129,-70.985"/>
</g>
</g>
</svg>
