<?xml version="1.0" encoding="UTF-8" standalone="no"?>
<!DOCTYPE svg PUBLIC "-//W3C//DTD SVG 1.1//EN"
 "http://www.w3.org/Graphics/SVG/1.1/DTD/svg11.dtd">
<!-- Generated by graphviz version 2.40.1 (20161225.0304)
 -->
<!-- Title: G Pages: 1 -->
<svg width="1854pt" height="188pt"
 viewBox="0.00 0.00 1853.72 188.00" xmlns="http://www.w3.org/2000/svg" xmlns:xlink="http://www.w3.org/1999/xlink">
<g id="graph0" class="graph" transform="scale(1 1) rotate(0) translate(4 184)">
<title>G</title>
<polygon fill="#ffffff" stroke="transparent" points="-4,4 -4,-184 1849.7232,-184 1849.7232,4 -4,4"/>
<!-- p1 -->
<g id="node1" class="node">
<title>p1</title>
<g id="a_node1"><a xlink:href="linalg/graph_p1.html" xlink:title="Kartesisches Produkt, Tupel">
<polygon fill="none" stroke="#000000" points="215,-180 0,-180 0,-144 221,-144 221,-174 215,-180"/>
<polyline fill="none" stroke="#000000" points="215,-180 215,-174 "/>
<polyline fill="none" stroke="#000000" points="221,-174 215,-174 "/>
<text text-anchor="middle" x="110.5" y="-158.3" font-family="Times,serif" font-size="14.00" fill="#000000">Kartesisches Produkt, Tupel</text>
</a>
</g>
</g>
<!-- m1 -->
<g id="node9" class="node">
<title>m1</title>
<g id="a_node9"><a xlink:href="linalg/graph_m1.html" xlink:title="Basics und Notationen">
<polygon fill="none" stroke="#000000" points="443,-108 268,-108 264,-104 264,-72 439,-72 443,-76 443,-108"/>
<polyline fill="none" stroke="#000000" points="439,-104 264,-104 "/>
<polyline fill="none" stroke="#000000" points="439,-104 439,-72 "/>
<polyline fill="none" stroke="#000000" points="439,-104 443,-108 "/>
<text text-anchor="middle" x="353.5" y="-86.3" font-family="Times,serif" font-size="14.00" fill="#000000">Basics und Notationen</text>
</a>
</g>
</g>
<!-- p1&#45;&gt;m1 -->
<g id="edge1" class="edge">
<title>p1&#45;&gt;m1</title>
<path fill="none" stroke="#000000" d="M171.5055,-143.9243C205.3028,-133.9103 247.4844,-121.412 282.7262,-110.97"/>
<polygon fill="#000000" stroke="#000000" points="283.8757,-114.2799 292.4694,-108.0831 281.8871,-107.5683 283.8757,-114.2799"/>
</g>
<!-- p2 -->
<g id="node2" class="node">
<title>p2</title>
<g id="a_node2"><a xlink:href="linalg/graph_p2.html" xlink:title="Quantoren">
<polygon fill="none" stroke="#000000" points="326,-180 239,-180 239,-144 332,-144 332,-174 326,-180"/>
<polyline fill="none" stroke="#000000" points="326,-180 326,-174 "/>
<polyline fill="none" stroke="#000000" points="332,-174 326,-174 "/>
<text text-anchor="middle" x="285.5" y="-158.3" font-family="Times,serif" font-size="14.00" fill="#000000">Quantoren</text>
</a>
</g>
</g>
<!-- p2&#45;&gt;m1 -->
<g id="edge2" class="edge">
<title>p2&#45;&gt;m1</title>
<path fill="none" stroke="#000000" d="M302.6593,-143.8314C310.6511,-135.3694 320.3038,-125.1489 329.0416,-115.8971"/>
<polygon fill="#000000" stroke="#000000" points="331.788,-118.0866 336.1097,-108.4133 326.6989,-113.2802 331.788,-118.0866"/>
</g>
<!-- p3 -->
<g id="node3" class="node">
<title>p3</title>
<g id="a_node3"><a xlink:href="linalg/graph_p3.html" xlink:title="Reelle Zahlen">
<polygon fill="none" stroke="#000000" points="724.5,-180 616.5,-180 616.5,-144 730.5,-144 730.5,-174 724.5,-180"/>
<polyline fill="none" stroke="#000000" points="724.5,-180 724.5,-174 "/>
<polyline fill="none" stroke="#000000" points="730.5,-174 724.5,-174 "/>
<text text-anchor="middle" x="673.5" y="-158.3" font-family="Times,serif" font-size="14.00" fill="#000000">Reelle Zahlen</text>
</a>
</g>
</g>
<!-- p6 -->
<g id="node6" class="node">
<title>p6</title>
<g id="a_node6"><a xlink:href="linalg/graph_p6.html" xlink:title="Intervall">
<polygon fill="none" stroke="#000000" points="672.5,-108 600.5,-108 600.5,-72 678.5,-72 678.5,-102 672.5,-108"/>
<polyline fill="none" stroke="#000000" points="672.5,-108 672.5,-102 "/>
<polyline fill="none" stroke="#000000" points="678.5,-102 672.5,-102 "/>
<text text-anchor="middle" x="639.5" y="-86.3" font-family="Times,serif" font-size="14.00" fill="#000000">Intervall</text>
</a>
</g>
</g>
<!-- p3&#45;&gt;p6 -->
<g id="edge9" class="edge">
<title>p3&#45;&gt;p6</title>
<path fill="none" stroke="#000000" d="M664.9204,-143.8314C661.1642,-135.8771 656.6743,-126.369 652.5202,-117.5723"/>
<polygon fill="#000000" stroke="#000000" points="655.6301,-115.9612 648.1952,-108.4133 649.3004,-118.9503 655.6301,-115.9612"/>
</g>
<!-- m2 -->
<g id="node10" class="node">
<title>m2</title>
<g id="a_node10"><a xlink:href="linalg/graph_m2.html" xlink:title="Schulwissen">
<polygon fill="none" stroke="#000000" points="795.5,-36 693.5,-36 689.5,-32 689.5,0 791.5,0 795.5,-4 795.5,-36"/>
<polyline fill="none" stroke="#000000" points="791.5,-32 689.5,-32 "/>
<polyline fill="none" stroke="#000000" points="791.5,-32 791.5,0 "/>
<polyline fill="none" stroke="#000000" points="791.5,-32 795.5,-36 "/>
<text text-anchor="middle" x="742.5" y="-14.3" font-family="Times,serif" font-size="14.00" fill="#000000">Schulwissen</text>
</a>
</g>
</g>
<!-- p3&#45;&gt;m2 -->
<g id="edge5" class="edge">
<title>p3&#45;&gt;m2</title>
<path fill="none" stroke="#000000" d="M682.2389,-143.7623C694.1634,-118.8764 715.6273,-74.0822 729.4588,-45.2165"/>
<polygon fill="#000000" stroke="#000000" points="732.6672,-46.6202 733.8321,-36.0896 726.3544,-43.5953 732.6672,-46.6202"/>
</g>
<!-- p4 -->
<g id="node4" class="node">
<title>p4</title>
<g id="a_node4"><a xlink:href="linalg/graph_p4.html" xlink:title="Komplexe Zahlen">
<polygon fill="none" stroke="#000000" points="484.5,-180 350.5,-180 350.5,-144 490.5,-144 490.5,-174 484.5,-180"/>
<polyline fill="none" stroke="#000000" points="484.5,-180 484.5,-174 "/>
<polyline fill="none" stroke="#000000" points="490.5,-174 484.5,-174 "/>
<text text-anchor="middle" x="420.5" y="-158.3" font-family="Times,serif" font-size="14.00" fill="#000000">Komplexe Zahlen</text>
</a>
</g>
</g>
<!-- p4&#45;&gt;m1 -->
<g id="edge3" class="edge">
<title>p4&#45;&gt;m1</title>
<path fill="none" stroke="#000000" d="M403.5931,-143.8314C395.7187,-135.3694 386.208,-125.1489 377.5987,-115.8971"/>
<polygon fill="#000000" stroke="#000000" points="380.0092,-113.3497 370.6346,-108.4133 374.8847,-118.1183 380.0092,-113.3497"/>
</g>
<!-- p5 -->
<g id="node5" class="node">
<title>p5</title>
<g id="a_node5"><a xlink:href="linalg/graph_p5.html" xlink:title="Stetigkeit">
<polygon fill="none" stroke="#000000" points="816.5,-108 734.5,-108 734.5,-72 822.5,-72 822.5,-102 816.5,-108"/>
<polyline fill="none" stroke="#000000" points="816.5,-108 816.5,-102 "/>
<polyline fill="none" stroke="#000000" points="822.5,-102 816.5,-102 "/>
<text text-anchor="middle" x="778.5" y="-86.3" font-family="Times,serif" font-size="14.00" fill="#000000">Stetigkeit</text>
</a>
</g>
</g>
<!-- p5&#45;&gt;m2 -->
<g id="edge6" class="edge">
<title>p5&#45;&gt;m2</title>
<path fill="none" stroke="#000000" d="M769.4157,-71.8314C765.4385,-63.8771 760.6845,-54.369 756.2861,-45.5723"/>
<polygon fill="#000000" stroke="#000000" points="759.3093,-43.7923 751.7066,-36.4133 753.0483,-46.9228 759.3093,-43.7923"/>
</g>
<!-- p6&#45;&gt;m2 -->
<g id="edge7" class="edge">
<title>p6&#45;&gt;m2</title>
<path fill="none" stroke="#000000" d="M665.4912,-71.8314C678.4216,-62.7927 694.2222,-51.7476 708.1383,-42.0198"/>
<polygon fill="#000000" stroke="#000000" points="710.3263,-44.7608 716.5171,-36.1628 706.3157,-39.0235 710.3263,-44.7608"/>
</g>
<!-- p7 -->
<g id="node7" class="node">
<title>p7</title>
<g id="a_node7"><a xlink:href="linalg/graph_p7.html" xlink:title="Abbildung">
<polygon fill="none" stroke="#000000" points="592.5,-180 508.5,-180 508.5,-144 598.5,-144 598.5,-174 592.5,-180"/>
<polyline fill="none" stroke="#000000" points="592.5,-180 592.5,-174 "/>
<polyline fill="none" stroke="#000000" points="598.5,-174 592.5,-174 "/>
<text text-anchor="middle" x="553.5" y="-158.3" font-family="Times,serif" font-size="14.00" fill="#000000">Abbildung</text>
</a>
</g>
</g>
<!-- p7&#45;&gt;m1 -->
<g id="edge4" class="edge">
<title>p7&#45;&gt;m1</title>
<path fill="none" stroke="#000000" d="M508.1169,-145.6621C480.038,-135.5537 443.6719,-122.4619 413.2632,-111.5147"/>
<polygon fill="#000000" stroke="#000000" points="414.212,-108.1365 403.6176,-108.0423 411.841,-114.7227 414.212,-108.1365"/>
</g>
<!-- p8 -->
<g id="node8" class="node">
<title>p8</title>
<g id="a_node8"><a xlink:href="linalg/graph_p8.html" xlink:title="Funktion">
<polygon fill="none" stroke="#000000" points="916,-108 841,-108 841,-72 922,-72 922,-102 916,-108"/>
<polyline fill="none" stroke="#000000" points="916,-108 916,-102 "/>
<polyline fill="none" stroke="#000000" points="922,-102 916,-102 "/>
<text text-anchor="middle" x="881.5" y="-86.3" font-family="Times,serif" font-size="14.00" fill="#000000">Funktion</text>
</a>
</g>
</g>
<!-- p8&#45;&gt;m2 -->
<g id="edge8" class="edge">
<title>p8&#45;&gt;m2</title>
<path fill="none" stroke="#000000" d="M846.4244,-71.8314C828.2339,-62.4089 805.8342,-50.8062 786.494,-40.7883"/>
<polygon fill="#000000" stroke="#000000" points="788.0537,-37.6545 777.5643,-36.1628 784.834,-43.8701 788.0537,-37.6545"/>
</g>
<!-- n1_1 -->
<g id="node11" class="node">
<title>n1_1</title>
<g id="a_node11"><a xlink:href="linalg/graph_n1_1.html" xlink:title="Die Menge der n&#45;Tupel reeller Zahlen">
<ellipse fill="none" stroke="#000000" cx="1037.5" cy="-162" rx="185.7671" ry="18"/>
<text text-anchor="middle" x="1037.5" y="-158.3" font-family="Times,serif" font-size="14.00" fill="#000000">Die Menge der n&#45;Tupel reeller Zahlen</text>
</a>
</g>
</g>
<!-- n1_3 -->
<g id="node13" class="node">
<title>n1_3</title>
<g id="a_node13"><a xlink:href="linalg/graph_n1_3.html" xlink:title="Motivation abstrakte Vektorräume">
<polygon fill="none" stroke="#000000" points="1339.2601,-90 1239.3801,-108 1039.6199,-108 939.7399,-90 1039.6199,-72 1239.3801,-72 1339.2601,-90"/>
<text text-anchor="middle" x="1139.5" y="-86.3" font-family="Times,serif" font-size="14.00" fill="#000000">Motivation abstrakte Vektorräume</text>
</a>
</g>
</g>
<!-- n1_1&#45;&gt;n1_3 -->
<g id="edge10" class="edge">
<title>n1_1&#45;&gt;n1_3</title>
<path fill="none" stroke="#000000" d="M1062.9758,-144.0171C1075.8762,-134.9109 1091.7124,-123.7324 1105.6249,-113.9118"/>
<polygon fill="none" stroke="#000000" points="1107.8442,-116.6295 1113.9955,-108.0032 1103.8074,-110.9107 1107.8442,-116.6295"/>
</g>
<!-- n1_2 -->
<g id="node12" class="node">
<title>n1_2</title>
<g id="a_node12"><a xlink:href="linalg/graph_n1_2.html" xlink:title="Die Menge der komplexwertigen stetigen Funktionen auf [0,1]">
<ellipse fill="none" stroke="#000000" cx="1543.5" cy="-162" rx="302.4465" ry="18"/>
<text text-anchor="middle" x="1543.5" y="-158.3" font-family="Times,serif" font-size="14.00" fill="#000000">Die Menge der komplexwertigen stetigen Funktionen auf [0,1]</text>
</a>
</g>
</g>
<!-- n1_2&#45;&gt;n1_3 -->
<g id="edge11" class="edge">
<title>n1_2&#45;&gt;n1_3</title>
<path fill="none" stroke="#000000" d="M1447.5015,-144.8914C1388.2584,-134.3332 1312.0421,-120.7501 1250.2494,-109.7375"/>
<polygon fill="none" stroke="#000000" points="1250.5279,-106.2321 1240.069,-107.9232 1249.2997,-113.1235 1250.5279,-106.2321"/>
</g>
<!-- n1_5 -->
<g id="node15" class="node">
<title>n1_5</title>
<g id="a_node15"><a xlink:href="linalg/graph_n1_5.html" xlink:title="Definition Vektorraum">
<polygon fill="none" stroke="#000000" points="1379.5,-36 1207.5,-36 1207.5,0 1385.5,0 1385.5,-30 1379.5,-36"/>
<polyline fill="none" stroke="#000000" points="1379.5,-36 1379.5,-30 "/>
<polyline fill="none" stroke="#000000" points="1385.5,-30 1379.5,-30 "/>
<text text-anchor="middle" x="1296.5" y="-14.3" font-family="Times,serif" font-size="14.00" fill="#000000">Definition Vektorraum</text>
</a>
</g>
</g>
<!-- n1_3&#45;&gt;n1_5 -->
<g id="edge12" class="edge">
<title>n1_3&#45;&gt;n1_5</title>
<path fill="none" stroke="#000000" d="M1179.1177,-71.8314C1200.0222,-62.2446 1225.8483,-50.4008 1247.9488,-40.2655"/>
<polygon fill="none" stroke="#000000" points="1249.5364,-43.388 1257.1672,-36.038 1246.6184,-37.0252 1249.5364,-43.388"/>
</g>
<!-- n1_4 -->
<g id="node14" class="node">
<title>n1_4</title>
<g id="a_node14"><a xlink:href="linalg/graph_n1_4.html" xlink:title="Notation Körper">
<polygon fill="none" stroke="#000000" points="1550.3305,-85.9946 1531.1521,-101.2228 1453.5,-108 1375.8479,-101.2228 1356.6695,-85.9946 1410.4064,-73.7826 1496.5936,-73.7826 1550.3305,-85.9946"/>
<text text-anchor="middle" x="1453.5" y="-86.3" font-family="Times,serif" font-size="14.00" fill="#000000">Notation Körper</text>
</a>
</g>
</g>
<!-- n1_4&#45;&gt;n1_5 -->
<g id="edge13" class="edge">
<title>n1_4&#45;&gt;n1_5</title>
<path fill="none" stroke="#000000" d="M1417.8743,-73.6621C1396.3095,-63.7725 1368.5177,-51.0272 1344.9706,-40.2286"/>
<polygon fill="#000000" stroke="#000000" points="1346.3911,-37.0295 1335.8423,-36.0423 1343.4731,-43.3923 1346.3911,-37.0295"/>
</g>
</g>
</svg>
